AtkinsonHyperlegibleMono-LightItalic.sfdir
StartChar: quotedbl
Encoding: 34 34 284
Width: 632
GlyphClass: 1
Flags: W
LayerCount: 2
Fore
SplineSet
282 668 m 1,0,-1
 354 668 l 1,1,-1
 287 430 l 1,2,-1
 249 430 l 1,3,-1
 282 668 l 1,0,-1
456 668 m 1,4,-1
 528 668 l 1,5,-1
 461 430 l 1,6,-1
 423 430 l 1,7,-1
 456 668 l 1,4,-1
EndSplineSet
EndChar
StartChar: numbersign
Encoding: 35 35 261
Width: 632
GlyphClass: 1
Flags: W
LayerCount: 2
Fore
SplineSet
139 191 m 1,0,-1
 23 191 l 1,1,-1
 43 247 l 1,2,-1
 157 247 l 1,3,-1
 217 421 l 1,4,-1
 103 421 l 1,5,-1
 123 477 l 1,6,-1
 236 477 l 1,7,-1
 302 668 l 1,8,-1
 365 668 l 1,9,-1
 299 477 l 1,10,-1
 467 477 l 1,11,-1
 533 668 l 1,12,-1
 596 668 l 1,13,-1
 530 477 l 1,14,-1
 645 477 l 1,15,-1
 625 421 l 1,16,-1
 512 421 l 1,17,-1
 452 247 l 1,18,-1
 565 247 l 1,19,-1
 545 191 l 1,20,-1
 433 191 l 1,21,-1
 367 0 l 1,22,-1
 304 0 l 1,23,-1
 370 191 l 1,24,-1
 202 191 l 1,25,-1
 136 0 l 1,26,-1
 73 0 l 1,27,-1
 139 191 l 1,0,-1
389 247 m 1,28,-1
 449 421 l 1,29,-1
 280 421 l 1,30,-1
 220 247 l 1,31,-1
 389 247 l 1,28,-1
EndSplineSet
EndChar
StartChar: parenright
Encoding: 41 41 269
Width: 632
GlyphClass: 1
Flags: W
LayerCount: 2
Fore
SplineSet
294 65.5 m 128,-1,1
 389 198 389 198 389 349 c 0,2,3
 389 440 389 440 353 532 c 128,-1,4
 317 624 317 624 248 708 c 1,5,-1
 328 708 l 1,6,7
 392 629 392 629 425 538 c 128,-1,8
 458 447 458 447 458 354 c 0,9,10
 458 202 458 202 373 67.5 c 128,-1,11
 288 -67 288 -67 144 -162 c 1,12,-1
 49 -162 l 1,13,0
 199 -67 199 -67 294 65.5 c 128,-1,1
EndSplineSet
EndChar
StartChar: period
Encoding: 46 46 249
Width: 632
GlyphClass: 1
Flags: W
LayerCount: 2
Fore
SplineSet
231 6 m 128,-1,1
 213 24 213 24 213 49 c 256,2,3
 213 74 213 74 231 91.5 c 128,-1,4
 249 109 249 109 274 109 c 256,5,6
 299 109 299 109 316.5 91.5 c 128,-1,7
 334 74 334 74 334 49 c 256,8,9
 334 24 334 24 316.5 6 c 128,-1,10
 299 -12 299 -12 274 -12 c 256,11,0
 249 -12 249 -12 231 6 c 128,-1,1
EndSplineSet
EndChar
StartChar: zero
Encoding: 48 48 229
Width: 632
GlyphClass: 1
Flags: W
LayerCount: 2
Fore
SplineSet
123 55.5 m 128,-1,1
 68 124 68 124 68 238 c 0,2,3
 68 336 68 336 101.5 439 c 128,-1,4
 135 542 135 542 206 612.5 c 128,-1,5
 277 683 277 683 382 683 c 0,6,7
 493 683 493 683 547.5 614.5 c 128,-1,8
 602 546 602 546 602 432 c 0,9,10
 602 335 602 335 568.5 231.5 c 128,-1,11
 535 128 535 128 464 57.5 c 128,-1,12
 393 -13 393 -13 288 -13 c 0,13,0
 178 -13 178 -13 123 55.5 c 128,-1,1
418 99 m 1,15,-1
 219 529 l 1,16,17
 178 470 178 470 157 388.5 c 128,-1,18
 136 307 136 307 136 236 c 0,19,20
 136 149 136 149 173 97 c 128,-1,21
 210 45 210 45 290 45 c 0,22,14
 362 45 362 45 418 99 c 1,15,-1
513.5 282.5 m 128,-1,24
 534 364 534 364 534 434 c 0,25,26
 534 521 534 521 497 573 c 128,-1,27
 460 625 460 625 380 625 c 0,28,29
 309 625 309 625 253 572 c 1,30,-1
 453 143 l 1,31,23
 493 201 493 201 513.5 282.5 c 128,-1,24
EndSplineSet
Substitution2: "'zero' Slashed Zero in Latin lookup 10 subtable" zero.zero
AlternateSubs2: "'aalt' Access All Alternates in Latin lookup 0 subtable" zero.zero
EndChar
StartChar: two
Encoding: 50 50 231
Width: 632
GlyphClass: 5
Flags: W
LayerCount: 2
Fore
SplineSet
102 93 m 2,0,1
 227 174 227 174 309 235 c 128,-1,2
 391 296 391 296 451.5 368 c 128,-1,3
 512 440 512 440 512 510 c 0,4,5
 512 560 512 560 478 591 c 128,-1,6
 444 622 444 622 388 622 c 0,7,8
 336 622 336 622 291.5 593 c 128,-1,9
 247 564 247 564 225 501 c 1,10,-1
 158 525 l 1,11,12
 189 601 189 601 249.5 640.5 c 128,-1,13
 310 680 310 680 389 680 c 0,14,15
 475 680 475 680 529.5 636 c 128,-1,16
 584 592 584 592 584 517 c 0,17,18
 584 432 584 432 521 351.5 c 128,-1,19
 458 271 458 271 378 211.5 c 128,-1,20
 298 152 298 152 192 86 c 2,21,-1
 156 63 l 1,22,-1
 515 63 l 1,23,-1
 502 0 l 1,24,-1
 39 0 l 1,25,-1
 52 61 l 1,26,-1
 102 93 l 2,0,1
EndSplineSet
Substitution2: "'sups' Superscript in Latin lookup 6 subtable" uni00B2
AlternateSubs2: "'aalt' Access All Alternates in Latin lookup 0 subtable" uni00B2
EndChar
StartChar: three
Encoding: 51 51 232
Width: 632
GlyphClass: 5
Flags: W
LayerCount: 2
Fore
SplineSet
143 31.5 m 128,-1,1
 84 75 84 75 78 156 c 1,2,-1
 146 171 l 1,3,4
 151 108 151 108 192.5 77 c 128,-1,5
 234 46 234 46 297 46 c 0,6,7
 345 46 345 46 384 65 c 128,-1,8
 423 84 423 84 446 119 c 128,-1,9
 469 154 469 154 469 199 c 0,10,11
 469 242 469 242 445 270.5 c 128,-1,12
 421 299 421 299 384.5 312.5 c 128,-1,13
 348 326 348 326 310 326 c 2,14,-1
 295 326 l 1,15,-1
 307 382 l 1,16,-1
 363 382 l 2,17,18
 410 382 410 382 444 401.5 c 128,-1,19
 478 421 478 421 496 452 c 128,-1,20
 514 483 514 483 514 518 c 0,21,22
 514 565 514 565 477 593.5 c 128,-1,23
 440 622 440 622 385 622 c 0,24,25
 329 622 329 622 283.5 591 c 128,-1,26
 238 560 238 560 220 503 c 1,27,-1
 154 524 l 1,28,29
 185 601 185 601 247 640.5 c 128,-1,30
 309 680 309 680 388 680 c 0,31,32
 472 680 472 680 528 639 c 128,-1,33
 584 598 584 598 584 527 c 0,34,35
 584 486 584 486 566.5 447 c 128,-1,36
 549 408 549 408 514 381 c 128,-1,37
 479 354 479 354 430 347 c 1,38,39
 482 332 482 332 510.5 291.5 c 128,-1,40
 539 251 539 251 539 199 c 0,41,42
 539 137 539 137 506 89 c 128,-1,43
 473 41 473 41 417 14.5 c 128,-1,44
 361 -12 361 -12 293 -12 c 0,45,0
 202 -12 202 -12 143 31.5 c 128,-1,1
EndSplineSet
Substitution2: "'sups' Superscript in Latin lookup 6 subtable" uni00B3
AlternateSubs2: "'aalt' Access All Alternates in Latin lookup 0 subtable" uni00B3
EndChar
StartChar: five
Encoding: 53 53 234
Width: 632
GlyphClass: 1
Flags: W
LayerCount: 2
Fore
SplineSet
139 35.5 m 128,-1,1
 88 83 88 83 81 156 c 1,2,-1
 147 173 l 1,3,4
 149 114 149 114 185 80 c 128,-1,5
 221 46 221 46 289 46 c 0,6,7
 349 46 349 46 391 77 c 128,-1,8
 433 108 433 108 453.5 156 c 128,-1,9
 474 204 474 204 474 253 c 0,10,11
 474 319 474 319 437 355 c 128,-1,12
 400 391 400 391 344 391 c 0,13,14
 296 391 296 391 255.5 365.5 c 128,-1,15
 215 340 215 340 194 312 c 1,16,-1
 134 331 l 1,17,-1
 246 668 l 1,18,-1
 608 668 l 1,19,-1
 595 605 l 1,20,-1
 290 605 l 1,21,-1
 216 387 l 1,22,23
 276 449 276 449 361 449 c 0,24,25
 443 449 443 449 493.5 398 c 128,-1,26
 544 347 544 347 544 260 c 0,27,28
 544 185 544 185 512 123 c 128,-1,29
 480 61 480 61 421.5 24.5 c 128,-1,30
 363 -12 363 -12 286 -12 c 0,31,0
 190 -12 190 -12 139 35.5 c 128,-1,1
EndSplineSet
EndChar
StartChar: six
Encoding: 54 54 235
Width: 632
GlyphClass: 1
Flags: W
LayerCount: 2
Fore
SplineSet
150.5 47 m 128,-1,1
 99 106 99 106 99 209 c 0,2,3
 99 300 99 300 133.5 410.5 c 128,-1,4
 168 521 168 521 239 600.5 c 128,-1,5
 310 680 310 680 414 680 c 0,6,7
 477 680 477 680 524.5 651.5 c 128,-1,8
 572 623 572 623 590 570 c 1,9,-1
 525 547 l 1,10,11
 515 582 515 582 483.5 602 c 128,-1,12
 452 622 452 622 410 622 c 0,13,14
 328 622 328 622 269 540 c 128,-1,15
 210 458 210 458 184 348 c 1,16,17
 214 394 214 394 263 416.5 c 128,-1,18
 312 439 312 439 363 439 c 0,19,20
 421 439 421 439 464.5 414.5 c 128,-1,21
 508 390 508 390 531.5 346.5 c 128,-1,22
 555 303 555 303 555 248 c 0,23,24
 555 179 555 179 522.5 119.5 c 128,-1,25
 490 60 490 60 432 24 c 128,-1,26
 374 -12 374 -12 301 -12 c 0,27,0
 202 -12 202 -12 150.5 47 c 128,-1,1
402 74 m 128,-1,29
 442 102 442 102 463 146.5 c 128,-1,30
 484 191 484 191 484 241 c 0,31,32
 484 304 484 304 447 342.5 c 128,-1,33
 410 381 410 381 346 381 c 0,34,35
 291 381 291 381 250 353 c 128,-1,36
 209 325 209 325 187.5 280 c 128,-1,37
 166 235 166 235 166 185 c 0,38,39
 166 122 166 122 204.5 84 c 128,-1,40
 243 46 243 46 309 46 c 0,41,28
 362 46 362 46 402 74 c 128,-1,29
EndSplineSet
EndChar
StartChar: seven
Encoding: 55 55 236
Width: 632
GlyphClass: 1
Flags: W
LayerCount: 2
Fore
SplineSet
541 605 m 1,0,-1
 172 605 l 1,1,-1
 186 668 l 1,2,-1
 631 668 l 1,3,-1
 618 605 l 1,4,-1
 211 0 l 1,5,-1
 128 0 l 1,6,-1
 541 605 l 1,0,-1
EndSplineSet
EndChar
StartChar: question
Encoding: 63 63 256
Width: 632
GlyphClass: 1
Flags: W
LayerCount: 2
Fore
SplineSet
275 275.5 m 128,-1,1
 289 301 289 301 315 322.5 c 128,-1,2
 341 344 341 344 388 372 c 0,3,4
 444 405 444 405 478 441.5 c 128,-1,5
 512 478 512 478 512 523 c 0,6,7
 512 565 512 565 477 593 c 128,-1,8
 442 621 442 621 386 621 c 0,9,10
 329 621 329 621 290.5 586 c 128,-1,11
 252 551 252 551 240 506 c 1,12,-1
 174 522 l 1,13,14
 195 597 195 597 255 638.5 c 128,-1,15
 315 680 315 680 396 680 c 0,16,17
 443 680 443 680 486 662 c 128,-1,18
 529 644 529 644 555.5 609.5 c 128,-1,19
 582 575 582 575 582 528 c 0,20,21
 582 460 582 460 539 412.5 c 128,-1,22
 496 365 496 365 413 316 c 0,23,24
 364 287 364 287 347 266.5 c 128,-1,25
 330 246 330 246 322 212 c 2,26,-1
 313 173 l 1,27,-1
 244 173 l 1,28,-1
 252 210 l 2,29,0
 261 250 261 250 275 275.5 c 128,-1,1
213 4 m 128,-1,31
 197 20 197 20 197 43 c 256,32,33
 197 66 197 66 213 81.5 c 128,-1,34
 229 97 229 97 252 97 c 256,35,36
 275 97 275 97 290.5 81.5 c 128,-1,37
 306 66 306 66 306 43 c 256,38,39
 306 20 306 20 290 4 c 128,-1,40
 274 -12 274 -12 252 -12 c 0,41,30
 229 -12 229 -12 213 4 c 128,-1,31
EndSplineSet
EndChar
StartChar: at
Encoding: 64 64 288
Width: 632
GlyphClass: 1
Flags: W
LayerCount: 2
Fore
SplineSet
135.5 -56.5 m 128,-1,1
 75 -19 75 -19 43 46.5 c 128,-1,2
 11 112 11 112 11 194 c 0,3,4
 11 298 11 298 55.5 392 c 128,-1,5
 100 486 100 486 180.5 544 c 128,-1,6
 261 602 261 602 364 602 c 0,7,8
 451 602 451 602 511 566 c 128,-1,9
 571 530 571 530 601 469.5 c 128,-1,10
 631 409 631 409 631 338 c 0,11,12
 631 285 631 285 612.5 224 c 128,-1,13
 594 163 594 163 556 120 c 128,-1,14
 518 77 518 77 463 77 c 0,15,16
 437 77 437 77 414 92 c 128,-1,17
 391 107 391 107 382 133 c 1,18,19
 332 75 332 75 271 75 c 0,20,21
 215 75 215 75 186.5 113 c 128,-1,22
 158 151 158 151 158 206 c 256,23,24
 158 261 158 261 182 315.5 c 128,-1,25
 206 370 206 370 250.5 405 c 128,-1,26
 295 440 295 440 355 440 c 0,27,28
 410 440 410 440 477 408 c 1,29,-1
 433 199 l 2,30,31
 431 185 431 185 431 177 c 0,32,33
 431 155 431 155 441 141 c 128,-1,34
 451 127 451 127 474 127 c 0,35,36
 508 127 508 127 532 162 c 128,-1,37
 556 197 556 197 568 246 c 128,-1,38
 580 295 580 295 580 334 c 0,39,40
 580 428 580 428 525 490 c 128,-1,41
 470 552 470 552 358 552 c 0,42,43
 262 552 262 552 195 496 c 128,-1,44
 128 440 128 440 95.5 357 c 128,-1,45
 63 274 63 274 63 195 c 0,46,47
 63 127 63 127 88 72.5 c 128,-1,48
 113 18 113 18 163 -13 c 128,-1,49
 213 -44 213 -44 283 -44 c 0,50,51
 332 -44 332 -44 387 -21 c 1,52,-1
 375 -80 l 1,53,54
 329 -94 329 -94 279 -94 c 0,55,0
 196 -94 196 -94 135.5 -56.5 c 128,-1,1
344 153 m 128,-1,57
 374 181 374 181 383 223 c 2,58,-1
 414 375 l 1,59,60
 385 388 385 388 353 388 c 0,61,62
 310 388 310 388 278.5 360.5 c 128,-1,63
 247 333 247 333 231 291 c 128,-1,64
 215 249 215 249 215 206 c 0,65,66
 215 169 215 169 231.5 147 c 128,-1,67
 248 125 248 125 281 125 c 256,68,56
 314 125 314 125 344 153 c 128,-1,57
EndSplineSet
EndChar
StartChar: B
Encoding: 66 66 13
Width: 632
GlyphClass: 2
Flags: W
AnchorPoint: "Anchor-1" 407 668 basechar 0
AnchorPoint: "Anchor-0" 265 0 basechar 0
LayerCount: 2
Fore
SplineSet
198 668 m 1,0,-1
 406 668 l 2,1,2
 495 668 495 668 542.5 625.5 c 128,-1,3
 590 583 590 583 590 517 c 0,4,5
 590 461 590 461 558 411.5 c 128,-1,6
 526 362 526 362 467 344 c 1,7,8
 507 326 507 326 529.5 290 c 128,-1,9
 552 254 552 254 552 208 c 0,10,11
 552 158 552 158 529.5 110 c 128,-1,12
 507 62 507 62 458 31 c 128,-1,13
 409 0 409 0 333 0 c 2,14,-1
 56 0 l 1,15,-1
 198 668 l 1,0,-1
413.5 81 m 128,-1,17
 448 102 448 102 465 135.5 c 128,-1,18
 482 169 482 169 482 206 c 0,19,20
 482 254 482 254 449.5 285 c 128,-1,21
 417 316 417 316 354 316 c 2,22,-1
 192 316 l 1,23,-1
 138 60 l 1,24,-1
 328 60 l 2,25,16
 379 60 379 60 413.5 81 c 128,-1,17
485 413 m 128,-1,27
 518 451 518 451 518 506 c 0,28,29
 518 551 518 551 488.5 579.5 c 128,-1,30
 459 608 459 608 397 608 c 2,31,-1
 255 608 l 1,32,-1
 206 375 l 1,33,-1
 389 375 l 2,34,26
 452 375 452 375 485 413 c 128,-1,27
EndSplineSet
EndChar
StartChar: C
Encoding: 67 67 14
Width: 632
GlyphClass: 2
Flags: W
AnchorPoint: "Anchor-1" 426 668 basechar 0
AnchorPoint: "Anchor-0" 314 0 basechar 0
LayerCount: 2
Fore
SplineSet
129.5 64 m 128,-1,1
 67 140 67 140 67 262 c 0,2,3
 67 357 67 357 106 454.5 c 128,-1,4
 145 552 145 552 221.5 616 c 128,-1,5
 298 680 298 680 404 680 c 0,6,7
 482 680 482 680 541.5 639.5 c 128,-1,8
 601 599 601 599 624 526 c 1,9,-1
 562 505 l 1,10,11
 545 558 545 558 502.5 589 c 128,-1,12
 460 620 460 620 402 620 c 0,13,14
 317 620 317 620 257.5 563.5 c 128,-1,15
 198 507 198 507 168 425 c 128,-1,16
 138 343 138 343 138 267 c 0,17,18
 138 171 138 171 183.5 109.5 c 128,-1,19
 229 48 229 48 320 48 c 0,20,21
 431 48 431 48 504 159 c 1,22,-1
 564 133 l 1,23,24
 518 59 518 59 454.5 23.5 c 128,-1,25
 391 -12 391 -12 314 -12 c 0,26,0
 192 -12 192 -12 129.5 64 c 128,-1,1
EndSplineSet
EndChar
StartChar: D
Encoding: 68 68 19
Width: 632
GlyphClass: 2
Flags: W
AnchorPoint: "Anchor-1" 414 668 basechar 0
AnchorPoint: "Anchor-0" 266 0 basechar 0
LayerCount: 2
Fore
SplineSet
164 668 m 1,0,-1
 279 668 l 2,1,2
 441 668 441 668 527.5 601 c 128,-1,3
 614 534 614 534 614 401 c 0,4,5
 614 307 614 307 579 215.5 c 128,-1,6
 544 124 544 124 463 62 c 128,-1,7
 382 0 382 0 252 0 c 2,8,-1
 22 0 l 1,9,-1
 164 668 l 1,0,-1
421 110.5 m 128,-1,11
 486 161 486 161 514.5 239 c 128,-1,12
 543 317 543 317 543 401 c 0,13,14
 543 506 543 506 477 557 c 128,-1,15
 411 608 411 608 279 608 c 2,16,-1
 221 608 l 1,17,-1
 104 60 l 1,18,-1
 253 60 l 2,19,10
 356 60 356 60 421 110.5 c 128,-1,11
EndSplineSet
EndChar
StartChar: G
Encoding: 71 71 33
Width: 632
GlyphClass: 2
Flags: W
AnchorPoint: "Anchor-1" 407 668 basechar 0
AnchorPoint: "Anchor-0" 285 0 basechar 0
LayerCount: 2
Fore
SplineSet
157 24 m 128,-1,1
 105 60 105 60 79 122 c 128,-1,2
 53 184 53 184 53 260 c 0,3,4
 53 352 53 352 90 449.5 c 128,-1,5
 127 547 127 547 202 613.5 c 128,-1,6
 277 680 277 680 386 680 c 0,7,8
 466 680 466 680 526 639.5 c 128,-1,9
 586 599 586 599 608 522 c 1,10,-1
 546 502 l 1,11,12
 531 560 531 560 487 590 c 128,-1,13
 443 620 443 620 384 620 c 0,14,15
 300 620 300 620 241 563 c 128,-1,16
 182 506 182 506 153 424 c 128,-1,17
 124 342 124 342 124 267 c 0,18,19
 124 172 124 172 168 110 c 128,-1,20
 212 48 212 48 295 48 c 0,21,22
 335 48 335 48 379.5 67 c 128,-1,23
 424 86 424 86 461.5 131.5 c 128,-1,24
 499 177 499 177 514 252 c 2,25,-1
 519 276 l 1,26,-1
 331 276 l 1,27,-1
 343 335 l 1,28,-1
 597 335 l 1,29,-1
 526 0 l 1,30,-1
 478 0 l 1,31,-1
 484 89 l 1,32,33
 443 36 443 36 388 12 c 128,-1,34
 333 -12 333 -12 283 -12 c 0,35,0
 209 -12 209 -12 157 24 c 128,-1,1
EndSplineSet
EndChar
StartChar: J
Encoding: 74 74 48
Width: 632
GlyphClass: 2
Flags: W
AnchorPoint: "Anchor-1" 563 668 basechar 0
AnchorPoint: "Anchor-0" 268 0 basechar 0
LayerCount: 2
Fore
SplineSet
109.5 32.5 m 128,-1,1
 51 77 51 77 51 166 c 0,2,3
 51 184 51 184 52 193 c 1,4,-1
 121 210 l 1,5,6
 118 192 118 192 118 176 c 0,7,8
 118 117 118 117 155.5 82.5 c 128,-1,9
 193 48 193 48 269 48 c 0,10,11
 324 48 324 48 366 77.5 c 128,-1,12
 408 107 408 107 424 181 c 2,13,-1
 528 668 l 1,14,-1
 599 668 l 1,15,-1
 494 172 l 2,16,17
 475 81 475 81 415 34.5 c 128,-1,18
 355 -12 355 -12 266 -12 c 0,19,0
 168 -12 168 -12 109.5 32.5 c 128,-1,1
EndSplineSet
Substitution2: "Single Substitution lookup 13 subtable" uni004A0301
AlternateSubs2: "'aalt' Access All Alternates in Latin lookup 0 subtable" uni004A0301
EndChar
StartChar: K
Encoding: 75 75 50
Width: 632
GlyphClass: 2
Flags: W
AnchorPoint: "Anchor-1" 398 668 basechar 0
AnchorPoint: "Anchor-0" 264 0 basechar 0
LayerCount: 2
Fore
SplineSet
181 668 m 1,0,-1
 251 668 l 1,1,-1
 174 309 l 1,2,-1
 567 668 l 1,3,-1
 658 668 l 1,4,-1
 347 387 l 1,5,-1
 549 0 l 1,6,-1
 469 0 l 1,7,-1
 295 339 l 1,8,-1
 154 211 l 1,9,-1
 109 0 l 1,10,-1
 39 0 l 1,11,-1
 181 668 l 1,0,-1
EndSplineSet
EndChar
StartChar: M
Encoding: 77 77 56
Width: 632
GlyphClass: 2
Flags: W
AnchorPoint: "Anchor-1" 405 668 basechar 0
AnchorPoint: "Anchor-0" 263 0 basechar 0
LayerCount: 2
Fore
SplineSet
138 668 m 1,0,-1
 248 668 l 1,1,-1
 281 94 l 1,2,-1
 285 94 l 1,3,-1
 560 668 l 1,4,-1
 672 668 l 1,5,-1
 530 0 l 1,6,-1
 465 0 l 1,7,-1
 591 594 l 1,8,-1
 587 594 l 1,9,-1
 299 0 l 1,10,-1
 229 0 l 1,11,-1
 191 594 l 1,12,-1
 187 594 l 1,13,-1
 61 0 l 1,14,-1
 -4 0 l 1,15,-1
 138 668 l 1,0,-1
EndSplineSet
EndChar
StartChar: O
Encoding: 79 79 62
Width: 632
GlyphClass: 2
Flags: W
AnchorPoint: "Anchor-3" 720 668 basechar 0
AnchorPoint: "Anchor-2" 531 10 basechar 0
AnchorPoint: "Anchor-1" 406 668 basechar 0
AnchorPoint: "Anchor-0" 264 0 basechar 0
LayerCount: 2
Fore
SplineSet
111.5 61.5 m 128,-1,1
 52 135 52 135 52 255 c 0,2,3
 52 353 52 353 89.5 451.5 c 128,-1,4
 127 550 127 550 201 615 c 128,-1,5
 275 680 275 680 380 680 c 0,6,7
 497 680 497 680 556.5 606.5 c 128,-1,8
 616 533 616 533 616 413 c 0,9,10
 616 314 616 314 579 216 c 128,-1,11
 542 118 542 118 467.5 53 c 128,-1,12
 393 -12 393 -12 288 -12 c 0,13,0
 171 -12 171 -12 111.5 61.5 c 128,-1,1
432 107 m 128,-1,15
 489 166 489 166 516.5 251 c 128,-1,16
 544 336 544 336 544 412 c 0,17,18
 544 505 544 505 503 562.5 c 128,-1,19
 462 620 462 620 377 620 c 0,20,21
 293 620 293 620 236 561 c 128,-1,22
 179 502 179 502 151.5 417 c 128,-1,23
 124 332 124 332 124 256 c 0,24,25
 124 163 124 163 165 105.5 c 128,-1,26
 206 48 206 48 291 48 c 0,27,14
 375 48 375 48 432 107 c 128,-1,15
EndSplineSet
Substitution2: "Single Substitution lookup 14 subtable" ordmasculine
AlternateSubs2: "'aalt' Access All Alternates in Latin lookup 0 subtable" ordmasculine
EndChar
StartChar: W
Encoding: 87 87 97
Width: 632
GlyphClass: 2
Flags: W
AnchorPoint: "Anchor-1" 405 668 basechar 0
AnchorPoint: "Anchor-0" 265 0 basechar 0
LayerCount: 2
Fore
SplineSet
101 668 m 1,0,-1
 165 668 l 1,1,-1
 138 93 l 1,2,-1
 142 93 l 1,3,-1
 368 668 l 1,4,-1
 441 668 l 1,5,-1
 421 93 l 1,6,-1
 425 93 l 1,7,-1
 642 668 l 1,8,-1
 710 668 l 1,9,-1
 446 0 l 1,10,-1
 364 0 l 1,11,-1
 383 553 l 1,12,-1
 379 553 l 1,13,-1
 163 0 l 1,14,-1
 81 0 l 1,15,-1
 101 668 l 1,0,-1
EndSplineSet
EndChar
StartChar: Z
Encoding: 90 90 108
Width: 632
GlyphClass: 2
Flags: W
AnchorPoint: "Anchor-1" 409 668 basechar 0
AnchorPoint: "Anchor-0" 263 0 basechar 0
LayerCount: 2
Fore
SplineSet
15 69 m 1,0,-1
 549 604 l 1,1,-1
 143 604 l 1,2,-1
 157 668 l 1,3,-1
 652 668 l 1,4,-1
 637 599 l 1,5,-1
 104 64 l 1,6,-1
 539 64 l 1,7,-1
 525 0 l 1,8,-1
 0 0 l 1,9,-1
 15 69 l 1,0,-1
EndSplineSet
EndChar
StartChar: bracketright
Encoding: 93 93 273
Width: 632
GlyphClass: 1
Flags: W
LayerCount: 2
Fore
SplineSet
84 -111 m 1,0,-1
 285 -111 l 1,1,-1
 448 657 l 1,2,-1
 247 657 l 1,3,-1
 257 708 l 1,4,-1
 524 708 l 1,5,-1
 340 -162 l 1,6,-1
 73 -162 l 1,7,-1
 84 -111 l 1,0,-1
EndSplineSet
EndChar
StartChar: c
Encoding: 99 99 124
Width: 632
GlyphClass: 2
Flags: W
AnchorPoint: "Anchor-1" 400 496 basechar 0
AnchorPoint: "Anchor-0" 292 0 basechar 0
LayerCount: 2
Fore
SplineSet
198.5 17 m 128,-1,1
 148 46 148 46 122 96 c 128,-1,2
 96 146 96 146 96 208 c 0,3,4
 96 285 96 285 131 354 c 128,-1,5
 166 423 166 423 230.5 465 c 128,-1,6
 295 507 295 507 377 507 c 0,7,8
 443 507 443 507 495 477.5 c 128,-1,9
 547 448 547 448 570 392 c 1,10,-1
 510 371 l 1,11,12
 494 408 494 408 456.5 428 c 128,-1,13
 419 448 419 448 374 448 c 0,14,15
 311 448 311 448 263.5 414.5 c 128,-1,16
 216 381 216 381 191 326 c 128,-1,17
 166 271 166 271 166 209 c 0,18,19
 166 137 166 137 206.5 92 c 128,-1,20
 247 47 247 47 325 47 c 0,21,22
 372 47 372 47 410 64.5 c 128,-1,23
 448 82 448 82 470 117 c 1,24,-1
 531 91 l 1,25,26
 498 44 498 44 443.5 16 c 128,-1,27
 389 -12 389 -12 321 -12 c 0,28,0
 249 -12 249 -12 198.5 17 c 128,-1,1
EndSplineSet
EndChar
StartChar: d
Encoding: 100 100 129
Width: 632
GlyphClass: 2
Flags: W
AnchorPoint: "Anchor-3" 623 498 basechar 0
AnchorPoint: "Anchor-1" 444 796 basechar 0
AnchorPoint: "Anchor-0" 275 0 basechar 0
LayerCount: 2
Fore
SplineSet
106.5 45.5 m 128,-1,1
 54 103 54 103 54 197 c 0,2,3
 54 278 54 278 86 349 c 128,-1,4
 118 420 118 420 179.5 463.5 c 128,-1,5
 241 507 241 507 325 507 c 0,6,7
 389 507 389 507 434.5 479.5 c 128,-1,8
 480 452 480 452 501 400 c 1,9,-1
 567 708 l 1,10,-1
 636 708 l 1,11,-1
 525 185 l 2,12,13
 504 87 504 87 502 0 c 1,14,-1
 438 0 l 1,15,-1
 433 76 l 1,16,17
 397 34 397 34 349.5 11 c 128,-1,18
 302 -12 302 -12 247 -12 c 0,19,0
 159 -12 159 -12 106.5 45.5 c 128,-1,1
381 86 m 128,-1,21
 428 125 428 125 451.5 183.5 c 128,-1,22
 475 242 475 242 475 299 c 0,23,24
 475 368 475 368 438.5 408 c 128,-1,25
 402 448 402 448 333 448 c 0,26,27
 261 448 261 448 214 409 c 128,-1,28
 167 370 167 370 146 313.5 c 128,-1,29
 125 257 125 257 125 204 c 0,30,31
 125 134 125 134 162.5 90.5 c 128,-1,32
 200 47 200 47 267 47 c 256,33,20
 334 47 334 47 381 86 c 128,-1,21
EndSplineSet
EndChar
StartChar: e
Encoding: 101 101 133
Width: 632
GlyphClass: 2
Flags: W
AnchorPoint: "Anchor-2" 428 -3 basechar 0
AnchorPoint: "Anchor-1" 374 494 basechar 0
AnchorPoint: "Anchor-0" 262 2 basechar 0
LayerCount: 2
Fore
SplineSet
137.5 47 m 128,-1,1
 78 106 78 106 78 201 c 0,2,3
 78 280 78 280 112 350.5 c 128,-1,4
 146 421 146 421 208 464 c 128,-1,5
 270 507 270 507 350 507 c 0,6,7
 415 507 415 507 463 480 c 128,-1,8
 511 453 511 453 536 406 c 128,-1,9
 561 359 561 359 561 301 c 0,10,11
 561 268 561 268 554 239 c 1,12,-1
 149 239 l 1,13,14
 148 229 148 229 148 211 c 0,15,16
 148 133 148 133 190.5 90 c 128,-1,17
 233 47 233 47 311 47 c 0,18,19
 353 47 353 47 384 61.5 c 128,-1,20
 415 76 415 76 438 105 c 1,21,-1
 502 79 l 1,22,23
 427 -12 427 -12 306 -12 c 0,24,0
 197 -12 197 -12 137.5 47 c 128,-1,1
495 308 m 0,26,27
 495 368 495 368 454.5 408.5 c 128,-1,28
 414 449 414 449 347 449 c 0,29,30
 274 449 274 449 226 404.5 c 128,-1,31
 178 360 178 360 158 291 c 1,32,-1
 494 291 l 1,33,25
 495 297 495 297 495 308 c 0,26,27
EndSplineSet
EndChar
StartChar: f
Encoding: 102 102 142
Width: 632
GlyphClass: 2
Flags: W
AnchorPoint: "Anchor-1" 413 796 basechar 0
AnchorPoint: "Anchor-0" 244 0 basechar 0
LayerCount: 2
Fore
SplineSet
303 441 m 1,0,-1
 147 441 l 1,1,-1
 158 496 l 1,2,-1
 314 496 l 1,3,-1
 338 605 l 2,4,5
 348 653 348 653 362.5 676.5 c 128,-1,6
 377 700 377 700 399.5 708 c 128,-1,7
 422 716 422 716 462 716 c 2,8,-1
 655 716 l 1,9,-1
 643 657 l 1,10,-1
 463 657 l 2,11,12
 444 657 444 657 434 653 c 128,-1,13
 424 649 424 649 417.5 636 c 128,-1,14
 411 623 411 623 405 595 c 2,15,-1
 384 496 l 1,16,-1
 525 496 l 1,17,-1
 514 441 l 1,18,-1
 372 441 l 1,19,-1
 279 0 l 1,20,-1
 209 0 l 1,21,-1
 303 441 l 1,0,-1
EndSplineSet
EndChar
StartChar: l
Encoding: 108 108 163
Width: 632
GlyphClass: 2
Flags: W
AnchorPoint: "Anchor-3" 421 499 basechar 0
AnchorPoint: "Anchor-1" 387 796 basechar 0
AnchorPoint: "Anchor-0" 321 0 basechar 0
LayerCount: 2
Fore
SplineSet
224 16.5 m 128,-1,1
 198 33 198 33 198 71 c 0,2,3
 198 86 198 86 203 113 c 2,4,-1
 318 653 l 1,5,-1
 203 653 l 1,6,-1
 214 708 l 1,7,-1
 399 708 l 1,8,-1
 273 115 l 2,9,10
 270 102 270 102 270 91 c 0,11,12
 270 73 270 73 282 66 c 128,-1,13
 294 59 294 59 326 59 c 2,14,-1
 496 59 l 1,15,-1
 484 0 l 1,16,-1
 313 0 l 2,17,0
 250 0 250 0 224 16.5 c 128,-1,1
EndSplineSet
EndChar
StartChar: p
Encoding: 112 112 182
Width: 632
GlyphClass: 2
Flags: W
AnchorPoint: "Anchor-1" 332 496 basechar 0
AnchorPoint: "Anchor-0" 226 0 basechar 0
LayerCount: 2
Fore
SplineSet
148 496 m 1,0,-1
 202 496 l 1,1,-1
 200 418 l 1,2,3
 236 461 236 461 283.5 484 c 128,-1,4
 331 507 331 507 386 507 c 0,5,6
 475 507 475 507 527 449.5 c 128,-1,7
 579 392 579 392 579 298 c 0,8,9
 579 217 579 217 547 146 c 128,-1,10
 515 75 515 75 454 31.5 c 128,-1,11
 393 -12 393 -12 309 -12 c 0,12,13
 244 -12 244 -12 198 15.5 c 128,-1,14
 152 43 152 43 129 91 c 1,15,-1
 77 -162 l 1,16,-1
 8 -162 l 1,17,-1
 148 496 l 1,0,-1
419 86 m 128,-1,19
 466 125 466 125 487 181.5 c 128,-1,20
 508 238 508 238 508 291 c 0,21,22
 508 361 508 361 470.5 404.5 c 128,-1,23
 433 448 433 448 366 448 c 0,24,25
 298 448 298 448 251 408.5 c 128,-1,26
 204 369 204 369 181 310.5 c 128,-1,27
 158 252 158 252 158 196 c 0,28,29
 158 127 158 127 194.5 87 c 128,-1,30
 231 47 231 47 300 47 c 0,31,18
 372 47 372 47 419 86 c 128,-1,19
EndSplineSet
EndChar
StartChar: s
Encoding: 115 115 188
Width: 632
GlyphClass: 2
Flags: W
AnchorPoint: "Anchor-1" 363 496 basechar 0
AnchorPoint: "Anchor-0" 291 0 basechar 0
LayerCount: 2
Fore
SplineSet
163.5 20 m 128,-1,1
 102 52 102 52 84 115 c 1,2,-1
 149 138 l 1,3,4
 159 91 159 91 203.5 68 c 128,-1,5
 248 45 248 45 307 45 c 0,6,7
 364 45 364 45 401 69 c 128,-1,8
 438 93 438 93 438 137 c 0,9,10
 438 168 438 168 413 185.5 c 128,-1,11
 388 203 388 203 338 219 c 2,12,-1
 263 244 l 2,13,14
 206 263 206 263 175.5 292.5 c 128,-1,15
 145 322 145 322 145 366 c 256,16,17
 145 410 145 410 172.5 442 c 128,-1,18
 200 474 200 474 244.5 490.5 c 128,-1,19
 289 507 289 507 340 507 c 0,20,21
 408 507 408 507 462.5 480.5 c 128,-1,22
 517 454 517 454 535 402 c 1,23,-1
 472 379 l 1,24,25
 461 415 461 415 421.5 432 c 128,-1,26
 382 449 382 449 333 449 c 0,27,28
 283 449 283 449 248 429 c 128,-1,29
 213 409 213 409 213 373 c 0,30,31
 213 327 213 327 292 301 c 2,32,-1
 369 275 l 2,33,34
 437 253 437 253 471.5 223 c 128,-1,35
 506 193 506 193 506 147 c 0,36,37
 506 99 506 99 479 63 c 128,-1,38
 452 27 452 27 405.5 7.5 c 128,-1,39
 359 -12 359 -12 303 -12 c 0,40,0
 225 -12 225 -12 163.5 20 c 128,-1,1
EndSplineSet
EndChar
StartChar: t
Encoding: 116 116 194
Width: 632
GlyphClass: 2
Flags: W
AnchorPoint: "Anchor-3" 394 544 basechar 0
AnchorPoint: "Anchor-1" 338 496 basechar 0
AnchorPoint: "Anchor-0" 290 0 basechar 0
LayerCount: 2
Fore
SplineSet
225 16.5 m 128,-1,1
 200 33 200 33 200 74 c 0,2,3
 200 96 200 96 208 131 c 2,4,-1
 273 441 l 1,5,-1
 165 441 l 1,6,-1
 177 496 l 1,7,-1
 286 496 l 1,8,-1
 312 620 l 1,9,-1
 381 620 l 1,10,-1
 355 496 l 1,11,-1
 568 496 l 1,12,-1
 555 441 l 1,13,-1
 342 441 l 1,14,-1
 277 131 l 2,15,16
 272 106 272 106 272 95 c 0,17,18
 272 75 272 75 284 67 c 128,-1,19
 296 59 296 59 326 59 c 2,20,-1
 424 59 l 1,21,-1
 412 0 l 1,22,-1
 309 0 l 2,23,0
 250 0 250 0 225 16.5 c 128,-1,1
EndSplineSet
EndChar
StartChar: u
Encoding: 117 117 198
Width: 632
GlyphClass: 2
Flags: W
AnchorPoint: "Anchor-3" 610 496 basechar 0
AnchorPoint: "Anchor-2" 466 10 basechar 0
AnchorPoint: "Anchor-1" 358 496 basechar 0
AnchorPoint: "Anchor-0" 253 0 basechar 0
LayerCount: 2
Fore
SplineSet
129.5 27.5 m 128,-1,1
 93 67 93 67 93 131 c 0,2,3
 93 160 93 160 99 188 c 2,4,-1
 165 496 l 1,5,-1
 234 496 l 1,6,-1
 172 201 l 2,7,8
 165 170 165 170 165 142 c 0,9,10
 165 47 165 47 265 47 c 0,11,12
 325 47 325 47 375.5 95 c 128,-1,13
 426 143 426 143 443 225 c 2,14,-1
 501 496 l 1,15,-1
 570 496 l 1,16,-1
 464 0 l 1,17,-1
 410 0 l 1,18,-1
 414 78 l 1,19,20
 384 42 384 42 338.5 15 c 128,-1,21
 293 -12 293 -12 241 -12 c 0,22,0
 166 -12 166 -12 129.5 27.5 c 128,-1,1
EndSplineSet
EndChar
StartChar: w
Encoding: 119 119 208
Width: 632
GlyphClass: 2
Flags: W
AnchorPoint: "Anchor-1" 366 496 basechar 0
AnchorPoint: "Anchor-0" 262 0 basechar 0
LayerCount: 2
Fore
SplineSet
85 496 m 1,0,-1
 147 496 l 1,1,-1
 155 103 l 1,2,-1
 159 103 l 1,3,-1
 337 496 l 1,4,-1
 397 496 l 1,5,-1
 410 105 l 1,6,-1
 414 105 l 1,7,-1
 587 496 l 1,8,-1
 653 496 l 1,9,-1
 423 0 l 1,10,-1
 364 0 l 1,11,-1
 351 405 l 1,12,-1
 347 405 l 1,13,-1
 163 0 l 1,14,-1
 104 0 l 1,15,-1
 85 496 l 1,0,-1
EndSplineSet
EndChar
StartChar: x
Encoding: 120 120 213
Width: 632
GlyphClass: 2
Flags: W
AnchorPoint: "Anchor-1" 370 496 basechar 0
AnchorPoint: "Anchor-0" 264 0 basechar 0
LayerCount: 2
Fore
SplineSet
273 256 m 1,0,-1
 134 496 l 1,1,-1
 210 496 l 1,2,-1
 322 300 l 1,3,-1
 326 300 l 1,4,-1
 522 496 l 1,5,-1
 605 496 l 1,6,-1
 362 252 l 1,7,-1
 507 0 l 1,8,-1
 431 0 l 1,9,-1
 310 206 l 1,10,-1
 306 206 l 1,11,-1
 103 0 l 1,12,-1
 20 0 l 1,13,-1
 273 256 l 1,0,-1
EndSplineSet
EndChar
StartChar: y
Encoding: 121 121 214
Width: 632
GlyphClass: 2
Flags: W
AnchorPoint: "Anchor-1" 360 496 basechar 0
AnchorPoint: "Anchor-0" 261 0 basechar 0
LayerCount: 2
Fore
SplineSet
20 -104 m 1,0,-1
 96 -104 l 2,1,2
 131 -104 131 -104 147.5 -94.5 c 128,-1,3
 164 -85 164 -85 185 -55 c 2,4,-1
 232 13 l 1,5,-1
 116 496 l 1,6,-1
 187 496 l 1,7,-1
 278 90 l 1,8,-1
 282 90 l 1,9,-1
 544 496 l 1,10,-1
 622 496 l 1,11,-1
 268 -34 l 2,12,13
 230 -92 230 -92 208.5 -117 c 128,-1,14
 187 -142 187 -142 160.5 -152 c 128,-1,15
 134 -162 134 -162 87 -162 c 2,16,-1
 8 -162 l 1,17,-1
 20 -104 l 1,0,-1
EndSplineSet
EndChar
StartChar: braceleft
Encoding: 123 123 270
Width: 632
GlyphClass: 1
Flags: W
LayerCount: 2
Fore
SplineSet
194.5 -144.5 m 128,-1,1
 169 -127 169 -127 169 -91 c 0,2,3
 169 -75 169 -75 174 -48 c 2,4,-1
 217 149 l 2,5,6
 222 174 222 174 222 187 c 0,7,8
 222 217 222 217 204 231 c 128,-1,9
 186 245 186 245 143 248 c 1,10,-1
 154 298 l 1,11,12
 193 299 193 299 214.5 307.5 c 128,-1,13
 236 316 236 316 248 335.5 c 128,-1,14
 260 355 260 355 268 393 c 2,15,-1
 316 614 l 2,16,17
 324 653 324 653 335.5 672.5 c 128,-1,18
 347 692 347 692 367 700 c 128,-1,19
 387 708 387 708 425 708 c 2,20,-1
 571 708 l 1,21,-1
 560 654 l 1,22,-1
 426 654 l 2,23,24
 407 654 407 654 397.5 646.5 c 128,-1,25
 388 639 388 639 383 618 c 2,26,-1
 334 391 l 2,27,28
 321 332 321 332 298.5 305.5 c 128,-1,29
 276 279 276 279 238 273 c 1,30,-1
 237 267 l 1,31,32
 263 255 263 255 275.5 236 c 128,-1,33
 288 217 288 217 288 186 c 0,34,35
 288 169 288 169 281 132 c 2,36,-1
 239 -63 l 1,37,-1
 237 -80 l 2,38,39
 237 -95 237 -95 248 -101.5 c 128,-1,40
 259 -108 259 -108 283 -108 c 2,41,-1
 397 -108 l 1,42,-1
 387 -162 l 1,43,-1
 283 -162 l 2,44,0
 220 -162 220 -162 194.5 -144.5 c 128,-1,1
EndSplineSet
EndChar
StartChar: exclamdown
Encoding: 161 161 255
Width: 632
GlyphClass: 1
Flags: W
LayerCount: 2
Fore
SplineSet
229 1 m 1,0,-1
 311 317 l 1,1,-1
 352 317 l 1,2,-1
 300 1 l 1,3,-1
 263 -170 l 1,4,-1
 193 -170 l 1,5,-1
 229 1 l 1,0,-1
322 416 m 128,-1,7
 306 432 306 432 306 455 c 256,8,9
 306 478 306 478 322 494 c 128,-1,10
 338 510 338 510 360 510 c 0,11,12
 383 510 383 510 399 494 c 128,-1,13
 415 478 415 478 415 455 c 256,14,15
 415 432 415 432 399 416 c 128,-1,16
 383 400 383 400 360 400 c 0,17,6
 338 400 338 400 322 416 c 128,-1,7
EndSplineSet
EndChar
StartChar: cent
Encoding: 162 162 302
Width: 632
GlyphClass: 1
Flags: W
LayerCount: 2
Fore
SplineSet
150 63.5 m 128,-1,1
 113 117 113 117 113 195 c 0,2,3
 113 271 113 271 145 341 c 128,-1,4
 177 411 177 411 234 455.5 c 128,-1,5
 291 500 291 500 363 504 c 1,6,-1
 381 586 l 1,7,-1
 423 586 l 1,8,-1
 405 502 l 1,9,10
 454 496 454 496 491.5 469 c 128,-1,11
 529 442 529 442 550 394 c 1,12,-1
 488 373 l 1,13,14
 475 402 475 402 450.5 419 c 128,-1,15
 426 436 426 436 393 441 c 1,16,-1
 310 49 l 1,17,18
 352 49 352 49 387.5 66.5 c 128,-1,19
 423 84 423 84 448 119 c 1,20,-1
 511 94 l 1,21,22
 473 41 473 41 418 14.5 c 128,-1,23
 363 -12 363 -12 296 -12 c 1,24,-1
 279 -90 l 1,25,-1
 237 -90 l 1,26,-1
 255 -6 l 1,27,0
 187 10 187 10 150 63.5 c 128,-1,1
260 394.5 m 128,-1,29
 223 356 223 356 204 302.5 c 128,-1,30
 185 249 185 249 185 200 c 0,31,32
 185 147 185 147 206.5 108.5 c 128,-1,33
 228 70 228 70 268 56 c 1,34,-1
 350 441 l 1,35,28
 297 433 297 433 260 394.5 c 128,-1,29
EndSplineSet
EndChar
StartChar: sterling
Encoding: 163 163 307
Width: 632
GlyphClass: 1
Flags: W
LayerCount: 2
Fore
SplineSet
184 141.5 m 128,-1,1
 231 203 231 203 231 278 c 0,2,3
 231 291 231 291 227 325 c 1,4,-1
 113 325 l 1,5,-1
 122 369 l 1,6,-1
 219 369 l 1,7,8
 208 415 208 415 203 442 c 128,-1,9
 198 469 198 469 198 493 c 0,10,11
 198 545 198 545 222 587.5 c 128,-1,12
 246 630 246 630 293.5 655.5 c 128,-1,13
 341 681 341 681 409 681 c 0,14,15
 488 681 488 681 544.5 644 c 128,-1,16
 601 607 601 607 613 541 c 1,17,-1
 542 525 l 1,18,19
 535 572 535 572 500.5 596.5 c 128,-1,20
 466 621 466 621 409 621 c 0,21,22
 344 621 344 621 306 587.5 c 128,-1,23
 268 554 268 554 268 493 c 0,24,25
 268 469 268 469 272.5 445 c 128,-1,26
 277 421 277 421 290 369 c 1,27,-1
 491 369 l 1,28,-1
 482 325 l 1,29,-1
 299 325 l 1,30,31
 302 307 302 307 302 288 c 0,32,33
 302 221 302 221 272.5 166 c 128,-1,34
 243 111 243 111 180 75 c 1,35,36
 200 84 200 84 225 84 c 0,37,38
 245 84 245 84 262.5 80 c 128,-1,39
 280 76 280 76 306 67 c 0,40,41
 334 57 334 57 356.5 52 c 128,-1,42
 379 47 379 47 405 47 c 0,43,44
 425 47 425 47 445.5 52 c 128,-1,45
 466 57 466 57 506 71 c 1,46,-1
 514 16 l 1,47,48
 441 -12 441 -12 393 -12 c 0,49,50
 368 -12 368 -12 347 -7 c 128,-1,51
 326 -2 326 -2 297 8 c 0,52,53
 267 18 267 18 247 22.5 c 128,-1,54
 227 27 227 27 203 27 c 0,55,56
 171 27 171 27 140 18.5 c 128,-1,57
 109 10 109 10 67 -10 c 1,58,-1
 54 40 l 1,59,0
 137 80 137 80 184 141.5 c 128,-1,1
EndSplineSet
EndChar
StartChar: currency
Encoding: 164 164 303
Width: 632
GlyphClass: 1
Flags: W
LayerCount: 2
Fore
SplineSet
96 117 m 1,0,-1
 162 182 l 1,1,2
 113 242 113 242 113 321 c 256,3,4
 113 400 113 400 162 460 c 1,5,-1
 96 525 l 1,6,-1
 128 555 l 1,7,-1
 193 490 l 1,8,9
 252 538 252 538 331 538 c 256,10,11
 410 538 410 538 469 490 c 1,12,-1
 534 555 l 1,13,-1
 566 525 l 1,14,-1
 501 460 l 1,15,16
 549 399 549 399 549 321 c 256,17,18
 549 243 549 243 501 182 c 1,19,-1
 566 117 l 1,20,-1
 534 87 l 1,21,-1
 469 151 l 1,22,23
 409 104 409 104 331 104 c 256,24,25
 253 104 253 104 193 151 c 1,26,-1
 128 87 l 1,27,-1
 96 117 l 1,0,-1
408.5 186 m 128,-1,29
 444 207 444 207 465 243 c 128,-1,30
 486 279 486 279 486 321 c 256,31,32
 486 363 486 363 465 399 c 128,-1,33
 444 435 444 435 408.5 456 c 128,-1,34
 373 477 373 477 331 477 c 256,35,36
 289 477 289 477 253.5 456 c 128,-1,37
 218 435 218 435 197 399 c 128,-1,38
 176 363 176 363 176 321 c 256,39,40
 176 279 176 279 197 243 c 128,-1,41
 218 207 218 207 253.5 186 c 128,-1,42
 289 165 289 165 331 165 c 256,43,28
 373 165 373 165 408.5 186 c 128,-1,29
EndSplineSet
EndChar
StartChar: guillemotleft
Encoding: 171 171 280
Width: 632
GlyphClass: 1
Flags: W
LayerCount: 2
Fore
SplineSet
303 245 m 1,0,-1
 493 460 l 1,1,-1
 573 460 l 1,2,-1
 377 239 l 1,3,-1
 484 40 l 1,4,-1
 412 40 l 1,5,-1
 303 245 l 1,0,-1
104 250 m 1,6,-1
 294 460 l 1,7,-1
 375 460 l 1,8,-1
 179 245 l 1,9,-1
 285 40 l 1,10,-1
 213 40 l 1,11,-1
 104 250 l 1,6,-1
EndSplineSet
EndChar
StartChar: logicalnot
Encoding: 172 172 323
Width: 632
GlyphClass: 1
Flags: W
LayerCount: 2
Fore
SplineSet
510 324 m 1,0,-1
 86 324 l 1,1,-1
 100 388 l 1,2,-1
 591 388 l 1,3,-1
 530 100 l 1,4,-1
 462 100 l 1,5,-1
 510 324 l 1,0,-1
EndSplineSet
EndChar
StartChar: degree
Encoding: 176 176 295
Width: 632
GlyphClass: 1
Flags: W
LayerCount: 2
Fore
SplineSet
290.5 461.5 m 128,-1,1
 253 499 253 499 253 552 c 0,2,3
 253 587 253 587 270 616.5 c 128,-1,4
 287 646 287 646 316.5 663.5 c 128,-1,5
 346 681 346 681 381 681 c 0,6,7
 415 681 415 681 444.5 663.5 c 128,-1,8
 474 646 474 646 491.5 616.5 c 128,-1,9
 509 587 509 587 509 552 c 256,10,11
 509 517 509 517 491.5 487.5 c 128,-1,12
 474 458 474 458 444.5 441 c 128,-1,13
 415 424 415 424 381 424 c 0,14,0
 328 424 328 424 290.5 461.5 c 128,-1,1
436 497 m 128,-1,16
 459 520 459 520 459 552 c 0,17,18
 459 585 459 585 436 607.5 c 128,-1,19
 413 630 413 630 381 630 c 0,20,21
 348 630 348 630 325 607.5 c 128,-1,22
 302 585 302 585 302 552 c 0,23,24
 302 520 302 520 325.5 497 c 128,-1,25
 349 474 349 474 381 474 c 256,26,15
 413 474 413 474 436 497 c 128,-1,16
EndSplineSet
EndChar
StartChar: plusminus
Encoding: 177 177 321
Width: 632
GlyphClass: 1
Flags: W
LayerCount: 2
Fore
SplineSet
291 275 m 1,0,-1
 81 275 l 1,1,-1
 93 333 l 1,2,-1
 303 333 l 1,3,-1
 338 496 l 1,4,-1
 400 496 l 1,5,-1
 365 333 l 1,6,-1
 575 333 l 1,7,-1
 562 275 l 1,8,-1
 352 275 l 1,9,-1
 319 112 l 1,10,-1
 257 112 l 1,11,-1
 291 275 l 1,0,-1
36 64 m 1,12,-1
 518 64 l 1,13,-1
 504 0 l 1,14,-1
 22 0 l 1,15,-1
 36 64 l 1,12,-1
EndSplineSet
EndChar
StartChar: uni00B2
Encoding: 178 178 245
Width: 632
GlyphClass: 1
Flags: W
LayerCount: 2
Fore
SplineSet
253 445 m 2,0,1
 329 498 329 498 374.5 534 c 128,-1,2
 420 570 420 570 450.5 609 c 128,-1,3
 481 648 481 648 481 685 c 0,4,5
 481 711 481 711 462.5 726 c 128,-1,6
 444 741 444 741 412 741 c 0,7,8
 383 741 383 741 361.5 724.5 c 128,-1,9
 340 708 340 708 330 671 c 1,10,-1
 274 684 l 1,11,12
 289 731 289 731 326 758.5 c 128,-1,13
 363 786 363 786 418 786 c 0,14,15
 472 786 472 786 506 759 c 128,-1,16
 540 732 540 732 540 687 c 0,17,18
 540 634 540 634 496 582 c 128,-1,19
 452 530 452 530 402 494 c 128,-1,20
 352 458 352 458 282 414 c 1,21,-1
 497 414 l 1,22,-1
 487 364 l 1,23,-1
 196 364 l 1,24,-1
 206 411 l 1,25,-1
 253 445 l 2,0,1
EndSplineSet
EndChar
StartChar: ordmasculine
Encoding: 186 186 224
Width: 632
GlyphClass: 1
Flags: W
LayerCount: 2
Fore
SplineSet
247.5 374.5 m 128,-1,1
 208 414 208 414 208 480 c 0,2,3
 208 534 208 534 230.5 583 c 128,-1,4
 253 632 253 632 295.5 662.5 c 128,-1,5
 338 693 338 693 395 693 c 0,6,7
 458 693 458 693 497.5 653 c 128,-1,8
 537 613 537 613 537 547 c 0,9,10
 537 493 537 493 514.5 444 c 128,-1,11
 492 395 492 395 449.5 365 c 128,-1,12
 407 335 407 335 350 335 c 0,13,0
 287 335 287 335 247.5 374.5 c 128,-1,1
424.5 410.5 m 128,-1,15
 453 438 453 438 465.5 475.5 c 128,-1,16
 478 513 478 513 478 545 c 0,17,18
 478 591 478 591 455 618.5 c 128,-1,19
 432 646 432 646 392 646 c 0,20,21
 349 646 349 646 320.5 618.5 c 128,-1,22
 292 591 292 591 279.5 553 c 128,-1,23
 267 515 267 515 267 483 c 0,24,25
 267 436 267 436 290 409.5 c 128,-1,26
 313 383 313 383 353 383 c 0,27,14
 396 383 396 383 424.5 410.5 c 128,-1,15
EndSplineSet
EndChar
StartChar: onequarter
Encoding: 188 188 242
Width: 632
GlyphClass: 3
Flags: W
LayerCount: 2
Fore
SplineSet
214 587 m 1,0,-1
 146 587 l 1,1,-1
 155 627 l 1,2,3
 219 627 219 627 241 668 c 1,4,-1
 289 668 l 1,5,-1
 224 364 l 1,6,-1
 167 364 l 1,7,-1
 214 587 l 1,0,-1
553 668 m 1,8,-1
 621 668 l 1,9,-1
 119 0 l 1,10,-1
 51 0 l 1,11,-1
 553 668 l 1,8,-1
451 64 m 1,12,-1
 295 64 l 1,13,-1
 305 113 l 1,14,-1
 500 305 l 1,15,-1
 557 305 l 1,16,-1
 516 114 l 1,17,-1
 565 114 l 1,18,-1
 554 64 l 1,19,-1
 506 64 l 1,20,-1
 492 0 l 1,21,-1
 437 0 l 1,22,-1
 451 64 l 1,12,-1
462 114 m 1,23,-1
 486 228 l 1,24,-1
 484 228 l 1,25,-1
 370 114 l 1,26,-1
 462 114 l 1,23,-1
EndSplineSet
Ligature2: "'frac' Diagonal Fractions in Latin lookup 7 subtable" one slash four
EndChar
StartChar: onehalf
Encoding: 189 189 241
Width: 632
GlyphClass: 3
Flags: W
LayerCount: 2
Fore
SplineSet
181 587 m 1,0,-1
 113 587 l 1,1,-1
 122 627 l 1,2,3
 186 627 186 627 208 668 c 1,4,-1
 256 668 l 1,5,-1
 191 364 l 1,6,-1
 134 364 l 1,7,-1
 181 587 l 1,0,-1
521 668 m 1,8,-1
 589 668 l 1,9,-1
 87 0 l 1,10,-1
 19 0 l 1,11,-1
 521 668 l 1,8,-1
336 57 m 2,12,13
 411 101 411 101 463 142 c 128,-1,14
 515 183 515 183 515 225 c 0,15,16
 515 242 515 242 504.5 252.5 c 128,-1,17
 494 263 494 263 472 263 c 0,18,19
 428 263 428 263 415 218 c 1,20,-1
 363 235 l 1,21,22
 398 309 398 309 476 309 c 0,23,24
 521 309 521 309 547.5 287.5 c 128,-1,25
 574 266 574 266 574 232 c 0,26,27
 574 180 574 180 526 136.5 c 128,-1,28
 478 93 478 93 409 51 c 1,29,-1
 544 51 l 1,30,-1
 533 0 l 1,31,-1
 306 0 l 1,32,-1
 316 45 l 1,33,-1
 336 57 l 2,12,13
EndSplineSet
Ligature2: "'frac' Diagonal Fractions in Latin lookup 7 subtable" one slash two
EndChar
StartChar: questiondown
Encoding: 191 191 257
Width: 632
GlyphClass: 1
Flags: W
LayerCount: 2
Fore
SplineSet
147 -164 m 128,-1,1
 104 -146 104 -146 77.5 -111.5 c 128,-1,2
 51 -77 51 -77 51 -30 c 0,3,4
 51 38 51 38 94 85.5 c 128,-1,5
 137 133 137 133 220 182 c 0,6,7
 269 211 269 211 286 231.5 c 128,-1,8
 303 252 303 252 311 286 c 2,9,-1
 320 325 l 1,10,-1
 389 325 l 1,11,-1
 381 288 l 2,12,13
 372 248 372 248 358 222.5 c 128,-1,14
 344 197 344 197 318 175.5 c 128,-1,15
 292 154 292 154 245 126 c 0,16,17
 189 93 189 93 155 56.5 c 128,-1,18
 121 20 121 20 121 -25 c 0,19,20
 121 -67 121 -67 156 -95 c 128,-1,21
 191 -123 191 -123 247 -123 c 0,22,23
 304 -123 304 -123 342.5 -88 c 128,-1,24
 381 -53 381 -53 393 -8 c 1,25,-1
 459 -24 l 1,26,27
 438 -99 438 -99 378 -140.5 c 128,-1,28
 318 -182 318 -182 237 -182 c 0,29,0
 190 -182 190 -182 147 -164 c 128,-1,1
343 417 m 128,-1,31
 327 433 327 433 327 455 c 0,32,33
 327 478 327 478 343 494 c 128,-1,34
 359 510 359 510 381 510 c 0,35,36
 404 510 404 510 420 494 c 128,-1,37
 436 478 436 478 436 455 c 256,38,39
 436 432 436 432 420 416.5 c 128,-1,40
 404 401 404 401 381 401 c 0,41,30
 359 401 359 401 343 417 c 128,-1,31
EndSplineSet
EndChar
StartChar: Ccedilla
Encoding: 199 199 17
Width: 632
GlyphClass: 2
Flags: W
AnchorPoint: "Anchor-1" 426 668 basechar 0
LayerCount: 2
Fore
SplineSet
193 -150 m 1,1,-1
 212 -122 l 1,2,3
 244 -144 244 -144 276 -144 c 0,4,5
 297 -144 297 -144 310.5 -133 c 128,-1,6
 324 -122 324 -122 324 -106 c 0,7,8
 324 -78 324 -78 284 -78 c 2,9,-1
 257 -80 l 1,10,-1
 255 -80 l 2,11,12
 248 -80 248 -80 244 -77 c 128,-1,13
 240 -74 240 -74 240 -69 c 0,14,15
 240 -62 240 -62 248 -52 c 2,16,-1
 282 -11 l 1,17,18
 176 0 176 0 121.5 74.5 c 128,-1,19
 67 149 67 149 67 262 c 0,20,21
 67 357 67 357 106 454.5 c 128,-1,22
 145 552 145 552 221.5 616 c 128,-1,23
 298 680 298 680 404 680 c 0,24,25
 482 680 482 680 541.5 639.5 c 128,-1,26
 601 599 601 599 624 526 c 1,27,-1
 562 505 l 1,28,29
 545 558 545 558 502.5 589 c 128,-1,30
 460 620 460 620 402 620 c 0,31,32
 317 620 317 620 257.5 563.5 c 128,-1,33
 198 507 198 507 168 425 c 128,-1,34
 138 343 138 343 138 267 c 0,35,36
 138 171 138 171 183.5 109.5 c 128,-1,37
 229 48 229 48 320 48 c 0,38,39
 431 48 431 48 504 159 c 1,40,-1
 564 133 l 1,41,42
 519 61 519 61 457 25.5 c 128,-1,43
 395 -10 395 -10 321 -12 c 1,44,-1
 291 -47 l 1,45,46
 302 -44 302 -44 311 -44 c 0,47,48
 339 -44 339 -44 357.5 -59.5 c 128,-1,49
 376 -75 376 -75 376 -98 c 0,50,51
 376 -134 376 -134 348.5 -156 c 128,-1,52
 321 -178 321 -178 280 -178 c 0,53,0
 233 -178 233 -178 193 -150 c 1,1,-1
EndSplineSet
EndChar
StartChar: multiply
Encoding: 215 215 313
Width: 632
GlyphClass: 1
Flags: W
LayerCount: 2
Fore
SplineSet
75 88 m 1,0,-1
 274 252 l 1,1,-1
 144 417 l 1,2,-1
 191 455 l 1,3,-1
 320 290 l 1,4,-1
 520 455 l 1,5,-1
 558 408 l 1,6,-1
 358 244 l 1,7,-1
 488 79 l 1,8,-1
 441 41 l 1,9,-1
 312 206 l 1,10,-1
 113 41 l 1,11,-1
 75 88 l 1,0,-1
EndSplineSet
EndChar
StartChar: Oslash
Encoding: 216 216 68
Width: 632
GlyphClass: 2
Flags: W
AnchorPoint: "Anchor-3" 720 668 basechar 0
AnchorPoint: "Anchor-2" 531 10 basechar 0
AnchorPoint: "Anchor-1" 406 668 basechar 0
AnchorPoint: "Anchor-0" 264 0 basechar 0
LayerCount: 2
Fore
SplineSet
106 70 m 1,1,-1
 33 -4 l 1,2,-1
 2 27 l 1,3,-1
 82 108 l 1,4,5
 52 171 52 171 52 255 c 0,6,7
 52 353 52 353 89.5 451.5 c 128,-1,8
 127 550 127 550 201 615 c 128,-1,9
 275 680 275 680 380 680 c 0,10,11
 502 680 502 680 563 598 c 1,12,-1
 636 671 l 1,13,-1
 668 641 l 1,14,-1
 587 559 l 1,15,16
 616 498 616 498 616 413 c 0,17,18
 616 314 616 314 579 216 c 128,-1,19
 542 118 542 118 467.5 53 c 128,-1,20
 393 -12 393 -12 288 -12 c 0,21,0
 167 -12 167 -12 106 70 c 1,1,-1
431.5 107 m 128,-1,23
 489 166 489 166 516.5 250.5 c 128,-1,24
 544 335 544 335 544 411 c 0,25,26
 544 462 544 462 531 500 c 1,27,-1
 155 120 l 1,28,29
 199 48 199 48 291 48 c 0,30,22
 374 48 374 48 431.5 107 c 128,-1,23
377 620 m 0,32,33
 293 620 293 620 236 561 c 128,-1,34
 179 502 179 502 151.5 417.5 c 128,-1,35
 124 333 124 333 124 257 c 0,36,37
 124 205 124 205 137 166 c 1,38,-1
 514 546 l 1,39,31
 470 620 470 620 377 620 c 0,32,33
EndSplineSet
EndChar
StartChar: ccedilla
Encoding: 231 231 127
Width: 632
GlyphClass: 2
Flags: W
AnchorPoint: "Anchor-1" 400 496 basechar 0
LayerCount: 2
Fore
SplineSet
172 -150 m 1,1,-1
 191 -122 l 1,2,3
 223 -144 223 -144 254 -144 c 0,4,5
 275 -144 275 -144 289 -133 c 128,-1,6
 303 -122 303 -122 303 -106 c 0,7,8
 303 -92 303 -92 291.5 -85 c 128,-1,9
 280 -78 280 -78 262 -78 c 2,10,-1
 236 -80 l 1,11,-1
 234 -80 l 2,12,13
 219 -80 219 -80 219 -68 c 0,14,15
 219 -60 219 -60 226 -52 c 2,16,-1
 264 -7 l 1,17,18
 183 10 183 10 139.5 68.5 c 128,-1,19
 96 127 96 127 96 208 c 0,20,21
 96 285 96 285 131 354 c 128,-1,22
 166 423 166 423 230.5 465 c 128,-1,23
 295 507 295 507 377 507 c 0,24,25
 443 507 443 507 495 477.5 c 128,-1,26
 547 448 547 448 570 392 c 1,27,-1
 510 371 l 1,28,29
 494 408 494 408 456.5 428 c 128,-1,30
 419 448 419 448 374 448 c 0,31,32
 311 448 311 448 263.5 414.5 c 128,-1,33
 216 381 216 381 191 326 c 128,-1,34
 166 271 166 271 166 209 c 0,35,36
 166 137 166 137 206.5 92 c 128,-1,37
 247 47 247 47 325 47 c 0,38,39
 372 47 372 47 410 64.5 c 128,-1,40
 448 82 448 82 470 117 c 1,41,-1
 531 91 l 1,42,43
 494 38 494 38 434 11 c 128,-1,44
 374 -16 374 -16 300 -11 c 1,45,-1
 270 -47 l 1,46,47
 279 -44 279 -44 290 -44 c 0,48,49
 318 -44 318 -44 336 -59.5 c 128,-1,50
 354 -75 354 -75 354 -98 c 0,51,52
 354 -134 354 -134 326.5 -156 c 128,-1,53
 299 -178 299 -178 258 -178 c 0,54,0
 212 -178 212 -178 172 -150 c 1,1,-1
EndSplineSet
EndChar
StartChar: eth
Encoding: 240 240 132
Width: 632
GlyphClass: 1
Flags: W
LayerCount: 2
Fore
SplineSet
163.5 14 m 128,-1,1
 112 40 112 40 83 87.5 c 128,-1,2
 54 135 54 135 54 197 c 0,3,4
 54 266 54 266 87 327.5 c 128,-1,5
 120 389 120 389 180 426 c 128,-1,6
 240 463 240 463 315 463 c 0,7,8
 387 463 387 463 442.5 425.5 c 128,-1,9
 498 388 498 388 514 323 c 1,10,11
 524 387 524 387 524 429 c 0,12,13
 524 522 524 522 483 582 c 1,14,-1
 416 528 l 1,15,-1
 388 562 l 1,16,-1
 452 613 l 1,17,18
 425 637 425 637 382 654.5 c 128,-1,19
 339 672 339 672 284 673 c 1,20,-1
 294 728 l 1,21,22
 417 723 417 723 498 654 c 1,23,-1
 562 705 l 1,24,-1
 590 671 l 1,25,-1
 531 623 l 1,26,27
 586 550 586 550 586 435 c 0,28,29
 586 339 586 339 556.5 236 c 128,-1,30
 527 133 527 133 458 60.5 c 128,-1,31
 389 -12 389 -12 280 -12 c 0,32,0
 215 -12 215 -12 163.5 14 c 128,-1,1
382.5 74.5 m 128,-1,34
 427 103 427 103 452 150.5 c 128,-1,35
 477 198 477 198 477 252 c 0,36,37
 477 295 477 295 457.5 329.5 c 128,-1,38
 438 364 438 364 402 384.5 c 128,-1,39
 366 405 366 405 319 405 c 0,40,41
 262 405 262 405 217.5 377 c 128,-1,42
 173 349 173 349 148.5 302.5 c 128,-1,43
 124 256 124 256 124 201 c 0,44,45
 124 130 124 130 167.5 88 c 128,-1,46
 211 46 211 46 282 46 c 0,47,33
 338 46 338 46 382.5 74.5 c 128,-1,34
EndSplineSet
EndChar
StartChar: divide
Encoding: 247 247 314
Width: 632
GlyphClass: 1
Flags: W
LayerCount: 2
Fore
SplineSet
73 279 m 1,0,-1
 572 279 l 1,1,-1
 559 217 l 1,2,-1
 60 217 l 1,3,-1
 73 279 l 1,0,-1
237.5 39.5 m 128,-1,5
 220 57 220 57 220 82 c 256,6,7
 220 107 220 107 237.5 124.5 c 128,-1,8
 255 142 255 142 280 142 c 256,9,10
 305 142 305 142 322.5 124.5 c 128,-1,11
 340 107 340 107 340 82 c 256,12,13
 340 57 340 57 322.5 39.5 c 128,-1,14
 305 22 305 22 280 22 c 256,15,4
 255 22 255 22 237.5 39.5 c 128,-1,5
308.5 372 m 128,-1,17
 291 389 291 389 291 414 c 0,18,19
 291 440 291 440 309 457.5 c 128,-1,20
 327 475 327 475 352 475 c 256,21,22
 377 475 377 475 394 457.5 c 128,-1,23
 411 440 411 440 411 414 c 0,24,25
 411 389 411 389 394 372 c 128,-1,26
 377 355 377 355 352 355 c 0,27,16
 326 355 326 355 308.5 372 c 128,-1,17
EndSplineSet
EndChar
StartChar: oslash
Encoding: 248 248 179
Width: 632
GlyphClass: 2
Flags: W
AnchorPoint: "Anchor-3" 643 496 basechar 0
AnchorPoint: "Anchor-2" 503 10 basechar 0
AnchorPoint: "Anchor-1" 365 496 basechar 0
AnchorPoint: "Anchor-0" 262 0 basechar 0
LayerCount: 2
Fore
SplineSet
195.5 5 m 128,-1,1
 153 22 153 22 123 53 c 1,2,-1
 57 -5 l 1,3,-1
 30 29 l 1,4,-1
 96 87 l 1,5,6
 64 138 64 138 64 207 c 0,7,8
 64 289 64 289 99.5 358 c 128,-1,9
 135 427 135 427 199 467 c 128,-1,10
 263 507 263 507 345 507 c 0,11,12
 394 507 394 507 435.5 491 c 128,-1,13
 477 475 477 475 507 444 c 1,14,-1
 573 501 l 1,15,-1
 601 467 l 1,16,-1
 534 410 l 1,17,18
 568 359 568 359 568 288 c 0,19,20
 568 206 568 206 532.5 137 c 128,-1,21
 497 68 497 68 433.5 28 c 128,-1,22
 370 -12 370 -12 288 -12 c 0,23,0
 238 -12 238 -12 195.5 5 c 128,-1,1
401 81 m 128,-1,25
 448 115 448 115 473 169.5 c 128,-1,26
 498 224 498 224 498 285 c 0,27,28
 498 327 498 327 481 363 c 1,29,-1
 172 95 l 1,30,31
 213 47 213 47 291 47 c 0,32,24
 354 47 354 47 401 81 c 128,-1,25
341 448 m 0,34,35
 278 448 278 448 231.5 414 c 128,-1,36
 185 380 185 380 160 325.5 c 128,-1,37
 135 271 135 271 135 210 c 0,38,39
 135 168 135 168 149 134 c 1,40,-1
 459 402 l 1,41,33
 418 448 418 448 341 448 c 0,34,35
EndSplineSet
EndChar
StartChar: Dcroat
Encoding: 272 272 21
Width: 632
GlyphClass: 1
Flags: W
LayerCount: 2
Fore
SplineSet
90 320 m 1,0,-1
 37 320 l 1,1,-1
 49 380 l 1,2,-1
 103 380 l 1,3,-1
 164 668 l 1,4,-1
 279 668 l 2,5,6
 441 668 441 668 527.5 601 c 128,-1,7
 614 534 614 534 614 401 c 0,8,9
 614 307 614 307 579 215.5 c 128,-1,10
 544 124 544 124 463 62 c 128,-1,11
 382 0 382 0 252 0 c 2,12,-1
 22 0 l 1,13,-1
 90 320 l 1,0,-1
421 110.5 m 128,-1,15
 486 161 486 161 514.5 239 c 128,-1,16
 543 317 543 317 543 401 c 0,17,18
 543 506 543 506 477 557 c 128,-1,19
 411 608 411 608 279 608 c 2,20,-1
 221 608 l 1,21,-1
 173 380 l 1,22,-1
 360 380 l 1,23,-1
 347 320 l 1,24,-1
 160 320 l 1,25,-1
 104 60 l 1,26,-1
 253 60 l 2,27,14
 356 60 356 60 421 110.5 c 128,-1,15
EndSplineSet
EndChar
StartChar: lslash
Encoding: 322 322 166
Width: 632
GlyphClass: 1
Flags: W
LayerCount: 2
Fore
SplineSet
224 16.5 m 128,-1,1
 198 33 198 33 198 71 c 0,2,3
 198 86 198 86 203 113 c 2,4,-1
 237 271 l 1,5,-1
 165 231 l 1,6,-1
 178 293 l 1,7,-1
 250 332 l 1,8,-1
 318 653 l 1,9,-1
 203 653 l 1,10,-1
 214 708 l 1,11,-1
 399 708 l 1,12,-1
 328 374 l 1,13,-1
 440 435 l 1,14,-1
 427 373 l 1,15,-1
 315 312 l 1,16,-1
 273 115 l 2,17,18
 270 102 270 102 270 91 c 0,19,20
 270 73 270 73 282 66 c 128,-1,21
 294 59 294 59 326 59 c 2,22,-1
 496 59 l 1,23,-1
 484 0 l 1,24,-1
 313 0 l 2,25,0
 250 0 250 0 224 16.5 c 128,-1,1
EndSplineSet
EndChar
StartChar: oe
Encoding: 339 339 181
Width: 632
GlyphClass: 2
Flags: W
AnchorPoint: "Anchor-1" 356 496 basechar 0
AnchorPoint: "Anchor-0" 250 0 basechar 0
LayerCount: 2
Fore
SplineSet
340.5 19.5 m 128,-1,1
 308 51 308 51 297 104 c 1,2,3
 266 46 266 46 223 17 c 128,-1,4
 180 -12 180 -12 137 -12 c 0,5,6
 66 -12 66 -12 34 39.5 c 128,-1,7
 2 91 2 91 2 171 c 0,8,9
 2 241 2 241 26.5 319.5 c 128,-1,10
 51 398 51 398 101.5 452.5 c 128,-1,11
 152 507 152 507 225 507 c 0,12,13
 328 507 328 507 351 388 c 1,14,15
 381 445 381 445 422 476 c 128,-1,16
 463 507 463 507 509 507 c 0,17,18
 575 507 575 507 608 457.5 c 128,-1,19
 641 408 641 408 641 332 c 0,20,21
 641 286 641 286 629 239 c 1,22,-1
 350 239 l 1,23,24
 344 206 344 206 344 171 c 0,25,26
 344 114 344 114 365.5 77.5 c 128,-1,27
 387 41 387 41 436 41 c 0,28,29
 464 41 464 41 485.5 55.5 c 128,-1,30
 507 70 507 70 528 102 c 1,31,-1
 581 81 l 1,32,33
 516 -12 516 -12 431 -12 c 0,34,0
 373 -12 373 -12 340.5 19.5 c 128,-1,1
232 91 m 128,-1,36
 268 136 268 136 286 199.5 c 128,-1,37
 304 263 304 263 304 316 c 0,38,39
 304 374 304 374 283.5 411.5 c 128,-1,40
 263 449 263 449 217 449 c 0,41,42
 167 449 167 449 132 403.5 c 128,-1,43
 97 358 97 358 79 294 c 128,-1,44
 61 230 61 230 61 177 c 0,45,46
 61 120 61 120 81 83 c 128,-1,47
 101 46 101 46 146 46 c 0,48,35
 196 46 196 46 232 91 c 128,-1,36
581 342 m 0,50,51
 581 390 581 390 562.5 421.5 c 128,-1,52
 544 453 544 453 503 453 c 0,53,54
 453 453 453 453 416.5 406 c 128,-1,55
 380 359 380 359 360 288 c 1,56,-1
 576 288 l 1,57,49
 581 318 581 318 581 342 c 0,50,51
EndSplineSet
EndChar
StartChar: uni0162
Encoding: 354 354 85
Width: 632
GlyphClass: 2
Flags: W
AnchorPoint: "Anchor-1" 405 668 basechar 0
LayerCount: 2
Fore
SplineSet
356 606 m 1,0,-1
 137 606 l 1,1,-1
 150 668 l 1,2,-1
 660 668 l 1,3,-1
 647 606 l 1,4,-1
 428 606 l 1,5,-1
 299 0 l 1,6,-1
 284 0 l 1,7,-1
 243 -47 l 1,8,9
 254 -44 254 -44 263 -44 c 0,10,11
 291 -44 291 -44 309.5 -59.5 c 128,-1,12
 328 -75 328 -75 328 -98 c 0,13,14
 328 -134 328 -134 300.5 -156 c 128,-1,15
 273 -178 273 -178 232 -178 c 0,16,17
 185 -178 185 -178 145 -150 c 1,18,-1
 164 -122 l 1,19,20
 196 -144 196 -144 228 -144 c 0,21,22
 249 -144 249 -144 262.5 -133 c 128,-1,23
 276 -122 276 -122 276 -106 c 0,24,25
 276 -78 276 -78 236 -78 c 2,26,-1
 209 -80 l 1,27,-1
 207 -80 l 2,28,29
 200 -80 200 -80 196 -77 c 128,-1,30
 192 -74 192 -74 192 -69 c 0,31,32
 192 -62 192 -62 200 -52 c 2,33,-1
 243 0 l 1,34,-1
 227 0 l 1,35,-1
 356 606 l 1,0,-1
EndSplineSet
Substitution2: "'locl' Localized Forms in Latin lookup 4 subtable" uni021A
AlternateSubs2: "'aalt' Access All Alternates in Latin lookup 0 subtable" uni021A
EndChar
StartChar: Uogonek
Encoding: 370 370 94
Width: 632
GlyphClass: 2
Flags: W
AnchorPoint: "Anchor-3" 732 668 basechar 0
AnchorPoint: "Anchor-1" 401 668 basechar 0
LayerCount: 2
Fore
SplineSet
308.5 -151.5 m 128,-1,1
 282 -134 282 -134 282 -101 c 0,2,3
 282 -59 282 -59 329 -10 c 1,4,5
 319 -11 319 -11 299 -11 c 0,6,7
 74 -11 74 -11 74 181 c 0,8,9
 74 219 74 219 85 272 c 2,10,-1
 169 668 l 1,11,-1
 241 668 l 1,12,-1
 154 258 l 2,13,14
 145 219 145 219 145 185 c 0,15,16
 145 48 145 48 298 48 c 0,17,18
 370 48 370 48 413.5 92 c 128,-1,19
 457 136 457 136 475 224 c 2,20,-1
 569 668 l 1,21,-1
 641 668 l 1,22,-1
 546 223 l 2,23,24
 513 63 513 63 406 9 c 0,25,26
 378 -5 378 -5 360.5 -31 c 128,-1,27
 343 -57 343 -57 343 -83 c 0,28,29
 343 -103 343 -103 357 -113 c 128,-1,30
 371 -123 371 -123 395 -123 c 0,31,32
 404 -123 404 -123 422 -119 c 1,33,-1
 412 -164 l 1,34,35
 395 -169 395 -169 378 -169 c 0,36,0
 335 -169 335 -169 308.5 -151.5 c 128,-1,1
EndSplineSet
EndChar
StartChar: florin
Encoding: 402 402 286
Width: 632
GlyphClass: 1
Flags: W
LayerCount: 2
Fore
SplineSet
6 -153 m 1,1,-1
 18 -93 l 1,2,3
 33 -103 33 -103 56.5 -108.5 c 128,-1,4
 80 -114 80 -114 99 -114 c 0,5,6
 201 -114 201 -114 230 25 c 2,7,-1
 319 444 l 1,8,-1
 137 444 l 1,9,-1
 149 496 l 1,10,-1
 331 496 l 1,11,-1
 348 579 l 2,12,13
 359 630 359 630 370.5 654 c 128,-1,14
 382 678 382 678 403 688.5 c 128,-1,15
 424 699 424 699 464 699 c 2,16,-1
 636 699 l 1,17,-1
 624 643 l 1,18,-1
 465 643 l 2,19,20
 442 643 442 643 432 632.5 c 128,-1,21
 422 622 422 622 416 594 c 2,22,-1
 394 496 l 1,23,-1
 593 496 l 1,24,-1
 581 444 l 1,25,-1
 383 444 l 1,26,-1
 295 29 l 2,27,28
 271 -85 271 -85 220.5 -128.5 c 128,-1,29
 170 -172 170 -172 99 -172 c 0,30,0
 44 -172 44 -172 6 -153 c 1,1,-1
EndSplineSet
EndChar
StartChar: uni0237
Encoding: 567 567 159
Width: 632
GlyphClass: 2
Flags: W
AnchorPoint: "Anchor-1" 397 496 basechar 0
AnchorPoint: "Anchor-0" 236 -251 basechar 0
LayerCount: 2
Fore
SplineSet
21 -103 m 1,0,-1
 186 -103 l 2,1,2
 213 -103 213 -103 227 -95.5 c 128,-1,3
 241 -88 241 -88 248.5 -70 c 128,-1,4
 256 -52 256 -52 264 -16 c 2,5,-1
 361 441 l 1,6,-1
 209 441 l 1,7,-1
 221 496 l 1,8,-1
 443 496 l 1,9,-1
 332 -25 l 2,10,11
 320 -78 320 -78 305.5 -106.5 c 128,-1,12
 291 -135 291 -135 265.5 -148.5 c 128,-1,13
 240 -162 240 -162 194 -162 c 2,14,-1
 9 -162 l 1,15,-1
 21 -103 l 1,0,-1
EndSplineSet
EndChar
StartChar: tildecomb
Encoding: 771 771 355
Width: 0
GlyphClass: 4
Flags: W
AnchorPoint: "Anchor-5" 405 664 basemark 0
AnchorPoint: "Anchor-5" 369 496 mark 0
AnchorPoint: "Anchor-1" 369 496 mark 0
LayerCount: 2
Fore
SplineSet
417.5 581 m 128,-1,1
 404 587 404 587 385 598 c 0,2,3
 371 607 371 607 361 611 c 128,-1,4
 351 615 351 615 340 615 c 0,5,6
 322 615 322 615 308 604.5 c 128,-1,7
 294 594 294 594 287 576 c 1,8,-1
 240 576 l 1,9,10
 258 620 258 620 286.5 641 c 128,-1,11
 315 662 315 662 350 662 c 0,12,13
 368 662 368 662 381 656.5 c 128,-1,14
 394 651 394 651 411 640 c 0,15,16
 425 631 425 631 435 626.5 c 128,-1,17
 445 622 445 622 457 622 c 0,18,19
 471 622 471 622 481.5 628.5 c 128,-1,20
 492 635 492 635 504 648 c 0,21,22
 516 664 516 664 531 664 c 0,23,24
 538 664 538 664 542.5 660 c 128,-1,25
 547 656 547 656 547 649 c 0,26,27
 547 635 547 635 532.5 617.5 c 128,-1,28
 518 600 518 600 495.5 587.5 c 128,-1,29
 473 575 473 575 450 575 c 0,30,0
 431 575 431 575 417.5 581 c 128,-1,1
EndSplineSet
Substitution2: "Single Substitution lookup 12 subtable" tildecomb.case
Substitution2: "'case' Case-Sensitive Forms in Latin lookup 9 subtable" tildecomb.case
AlternateSubs2: "'aalt' Access All Alternates in Latin lookup 0 subtable" tildecomb.case
EndChar
StartChar: uni0306
Encoding: 774 774 351
Width: 0
GlyphClass: 4
Flags: W
AnchorPoint: "Anchor-5" 407 678 basemark 0
AnchorPoint: "Anchor-5" 369 496 mark 0
AnchorPoint: "Anchor-1" 369 496 mark 0
LayerCount: 2
Fore
SplineSet
318.5 599.5 m 128,-1,1
 290 628 290 628 287 673 c 1,2,-1
 333 673 l 1,3,4
 337 647 337 647 355.5 632.5 c 128,-1,5
 374 618 374 618 399 618 c 0,6,7
 428 618 428 618 450.5 634.5 c 128,-1,8
 473 651 473 651 481 673 c 1,9,-1
 526 673 l 1,10,11
 513 628 513 628 477.5 599.5 c 128,-1,12
 442 571 442 571 394 571 c 0,13,0
 347 571 347 571 318.5 599.5 c 128,-1,1
EndSplineSet
Substitution2: "Single Substitution lookup 12 subtable" uni0306.case
Substitution2: "'case' Case-Sensitive Forms in Latin lookup 9 subtable" uni0306.case
AlternateSubs2: "'aalt' Access All Alternates in Latin lookup 0 subtable" uni0306.case
EndChar
StartChar: uni030B
Encoding: 779 779 344
Width: 0
GlyphClass: 4
Flags: W
AnchorPoint: "Anchor-5" 460 700 basemark 0
AnchorPoint: "Anchor-5" 331 496 mark 0
AnchorPoint: "Anchor-1" 331 496 mark 0
LayerCount: 2
Fore
SplineSet
388 700 m 0,1,2
 401 700 401 700 408 694 c 128,-1,3
 415 688 415 688 415 678 c 0,4,5
 415 664 415 664 405 652.5 c 128,-1,6
 395 641 395 641 367 620 c 2,7,-1
 299 570 l 1,8,-1
 240 570 l 1,9,-1
 336 669 l 2,10,0
 364 700 364 700 388 700 c 0,1,2
507 692.5 m 128,-1,12
 519 700 519 700 532 700 c 0,13,14
 544 700 544 700 551.5 693.5 c 128,-1,15
 559 687 559 687 559 678 c 0,16,17
 559 664 559 664 548.5 652.5 c 128,-1,18
 538 641 538 641 510 620 c 2,19,-1
 443 570 l 1,20,-1
 384 570 l 1,21,-1
 479 669 l 2,22,11
 495 685 495 685 507 692.5 c 128,-1,12
EndSplineSet
Substitution2: "Single Substitution lookup 12 subtable" uni030B.case
Substitution2: "'case' Case-Sensitive Forms in Latin lookup 9 subtable" uni030B.case
AlternateSubs2: "'aalt' Access All Alternates in Latin lookup 0 subtable" uni030B.case
EndChar
StartChar: uni030C
Encoding: 780 780 349
Width: 0
GlyphClass: 4
Flags: W
AnchorPoint: "Anchor-5" 408 680 basemark 0
AnchorPoint: "Anchor-5" 368 496 mark 0
AnchorPoint: "Anchor-1" 368 496 mark 0
LayerCount: 2
Fore
SplineSet
344 590 m 2,1,-1
 273 680 l 1,2,-1
 336 680 l 1,3,-1
 391 620 l 1,4,-1
 473 680 l 1,5,-1
 542 680 l 1,6,-1
 434 590 l 2,7,8
 408 570 408 570 385 570 c 0,9,0
 361 570 361 570 344 590 c 2,1,-1
EndSplineSet
Substitution2: "Single Substitution lookup 12 subtable" uni030C.case
Substitution2: "'case' Case-Sensitive Forms in Latin lookup 9 subtable" uni030C.case
AlternateSubs2: "'aalt' Access All Alternates in Latin lookup 0 subtable" uni030C.case
EndChar
StartChar: uni0326
Encoding: 806 806 359
Width: 0
GlyphClass: 4
Flags: W
AnchorPoint: "Anchor-4" 212 -237 basemark 0
AnchorPoint: "Anchor-4" 262 0 mark 0
AnchorPoint: "Anchor-0" 262 0 mark 0
LayerCount: 2
Fore
SplineSet
216 -183 m 128,-1,1
 247 -162 247 -162 247 -122 c 0,2,3
 247 -92 247 -92 221 -71 c 1,4,-1
 271 -52 l 1,5,6
 304 -82 304 -82 304 -120 c 0,7,8
 304 -151 304 -151 285 -178 c 128,-1,9
 266 -205 266 -205 236 -220 c 128,-1,10
 206 -235 206 -235 174 -234 c 1,11,-1
 147 -202 l 1,12,0
 185 -204 185 -204 216 -183 c 128,-1,1
EndSplineSet
EndChar
StartChar: uni0328
Encoding: 808 808 361
Width: 0
GlyphClass: 4
Flags: W
AnchorPoint: "Anchor-2" 338 10 mark 0
LayerCount: 2
Fore
SplineSet
197.5 -151 m 128,-1,1
 171 -133 171 -133 171 -103 c 0,2,3
 171 -63 171 -63 205.5 -33.5 c 128,-1,4
 240 -4 240 -4 291 17 c 1,5,-1
 336 0 l 1,6,7
 295 -11 295 -11 263 -35.5 c 128,-1,8
 231 -60 231 -60 231 -89 c 0,9,10
 231 -107 231 -107 246 -115 c 128,-1,11
 261 -123 261 -123 283 -123 c 0,12,13
 297 -123 297 -123 311 -119 c 1,14,-1
 301 -165 l 1,15,16
 282 -169 282 -169 263 -169 c 0,17,0
 224 -169 224 -169 197.5 -151 c 128,-1,1
EndSplineSet
Substitution2: "Single Substitution lookup 12 subtable" uni0328.case
Substitution2: "'case' Case-Sensitive Forms in Latin lookup 9 subtable" uni0328.case
AlternateSubs2: "'aalt' Access All Alternates in Latin lookup 0 subtable" uni0328.case
EndChar
StartChar: uni03BC
Encoding: 956 956 227
Width: 632
GlyphClass: 1
Flags: W
LayerCount: 2
Fore
SplineSet
171 496 m 1,0,-1
 240 496 l 1,1,-1
 178 201 l 2,2,3
 171 172 171 172 171 143 c 0,4,5
 171 47 171 47 263 47 c 0,6,7
 297 47 297 47 332.5 68.5 c 128,-1,8
 368 90 368 90 395 130.5 c 128,-1,9
 422 171 422 171 434 225 c 2,10,-1
 492 496 l 1,11,-1
 561 496 l 1,12,-1
 479 110 l 2,13,14
 475 95 475 95 475 83 c 0,15,16
 475 69 475 69 483.5 63.5 c 128,-1,17
 492 58 492 58 513 58 c 2,18,-1
 524 58 l 1,19,-1
 513 0 l 1,20,-1
 489 0 l 2,21,22
 436 0 436 0 418.5 17.5 c 128,-1,23
 401 35 401 35 403 73 c 1,24,25
 374 36 374 36 329 12 c 128,-1,26
 284 -12 284 -12 242 -12 c 0,27,28
 176 -12 176 -12 141 31 c 1,29,-1
 100 -162 l 1,30,-1
 31 -162 l 1,31,-1
 171 496 l 1,0,-1
EndSplineSet
EndChar
StartChar: pi
Encoding: 960 960 228
Width: 632
GlyphClass: 1
Flags: W
LayerCount: 2
Fore
SplineSet
180 441 m 1,0,-1
 106 441 l 1,1,-1
 118 496 l 1,2,-1
 604 496 l 1,3,-1
 592 441 l 1,4,-1
 509 441 l 1,5,-1
 441 123 l 2,6,7
 436 98 436 98 436 87 c 0,8,9
 436 70 436 70 445.5 63.5 c 128,-1,10
 455 57 455 57 478 57 c 2,11,-1
 510 57 l 1,12,-1
 498 0 l 1,13,-1
 480 0 l 2,14,15
 417 0 417 0 392 13.5 c 128,-1,16
 367 27 367 27 367 65 c 0,17,18
 367 86 367 86 375 124 c 2,19,-1
 443 441 l 1,20,-1
 245 441 l 1,21,-1
 151 0 l 1,22,-1
 86 0 l 1,23,-1
 180 441 l 1,0,-1
EndSplineSet
EndChar
StartChar: quotedblright
Encoding: 8221 8221 277
Width: 632
GlyphClass: 1
Flags: W
LayerCount: 2
Fore
SplineSet
441 585 m 128,-1,1
 430 600 430 600 430 620 c 0,2,3
 430 645 430 645 447.5 662.5 c 128,-1,4
 465 680 465 680 490 680 c 0,5,6
 517 680 517 680 533 663 c 128,-1,7
 549 646 549 646 549 624 c 0,8,9
 549 604 549 604 535 582 c 2,10,-1
 442 432 l 1,11,-1
 390 432 l 1,12,-1
 471 562 l 1,13,0
 452 570 452 570 441 585 c 128,-1,1
255 585 m 128,-1,15
 244 600 244 600 244 620 c 0,16,17
 244 645 244 645 261 662.5 c 128,-1,18
 278 680 278 680 303 680 c 0,19,20
 330 680 330 680 346 663 c 128,-1,21
 362 646 362 646 362 624 c 0,22,23
 362 604 362 604 348 582 c 2,24,-1
 256 432 l 1,25,-1
 203 432 l 1,26,-1
 285 562 l 1,27,14
 266 570 266 570 255 585 c 128,-1,15
EndSplineSet
EndChar
StartChar: daggerdbl
Encoding: 8225 8225 300
Width: 632
GlyphClass: 1
Flags: W
LayerCount: 2
Fore
SplineSet
270 171 m 1,0,-1
 77 171 l 1,1,-1
 92 240 l 1,2,-1
 284 240 l 1,3,-1
 324 427 l 1,4,-1
 131 427 l 1,5,-1
 146 496 l 1,6,-1
 339 496 l 1,7,-1
 376 668 l 1,8,-1
 437 668 l 1,9,-1
 400 496 l 1,10,-1
 592 496 l 1,11,-1
 577 427 l 1,12,-1
 386 427 l 1,13,-1
 346 240 l 1,14,-1
 538 240 l 1,15,-1
 523 171 l 1,16,-1
 332 171 l 1,17,-1
 295 0 l 1,18,-1
 234 0 l 1,19,-1
 270 171 l 1,0,-1
EndSplineSet
EndChar
StartChar: ellipsis
Encoding: 8230 8230 253
Width: 632
GlyphClass: 1
Flags: W
LayerCount: 2
Fore
SplineSet
23 5 m 128,-1,1
 6 22 6 22 6 47 c 0,2,3
 6 71 6 71 23 88 c 128,-1,4
 40 105 40 105 65 105 c 0,5,6
 89 105 89 105 106 88 c 128,-1,7
 123 71 123 71 123 47 c 0,8,9
 123 22 123 22 106 5 c 128,-1,10
 89 -12 89 -12 65 -12 c 0,11,0
 40 -12 40 -12 23 5 c 128,-1,1
232 5 m 128,-1,13
 215 22 215 22 215 47 c 0,14,15
 215 71 215 71 232 88 c 128,-1,16
 249 105 249 105 274 105 c 0,17,18
 298 105 298 105 315 88 c 128,-1,19
 332 71 332 71 332 47 c 0,20,21
 332 22 332 22 315 5 c 128,-1,22
 298 -12 298 -12 274 -12 c 0,23,12
 249 -12 249 -12 232 5 c 128,-1,13
441 5 m 128,-1,25
 424 22 424 22 424 47 c 0,26,27
 424 71 424 71 441 88 c 128,-1,28
 458 105 458 105 483 105 c 0,29,30
 507 105 507 105 524 88 c 128,-1,31
 541 71 541 71 541 47 c 0,32,33
 541 22 541 22 524 5 c 128,-1,34
 507 -12 507 -12 483 -12 c 0,35,24
 458 -12 458 -12 441 5 c 128,-1,25
EndSplineSet
EndChar
StartChar: Euro
Encoding: 8364 8364 305
Width: 632
GlyphClass: 1
Flags: W
LayerCount: 2
Fore
SplineSet
173.5 58 m 128,-1,1
 118 129 118 129 116 243 c 1,2,-1
 25 243 l 1,3,-1
 56 287 l 1,4,-1
 118 287 l 1,5,6
 121 332 121 332 133 380 c 1,7,-1
 54 380 l 1,8,-1
 85 425 l 1,9,-1
 146 425 l 1,10,11
 183 537 183 537 257 610 c 128,-1,12
 331 683 331 683 437 683 c 0,13,14
 514 683 514 683 569 641 c 128,-1,15
 624 599 624 599 644 527 c 1,16,-1
 584 506 l 1,17,18
 569 561 569 561 530 591.5 c 128,-1,19
 491 622 491 622 430 622 c 0,20,21
 353 622 353 622 298 566.5 c 128,-1,22
 243 511 243 511 214 425 c 1,23,-1
 471 425 l 1,24,-1
 440 380 l 1,25,-1
 201 380 l 1,26,27
 188 334 188 334 185 287 c 1,28,-1
 379 287 l 1,29,-1
 347 243 l 1,30,-1
 184 243 l 1,31,32
 186 157 186 157 226 102.5 c 128,-1,33
 266 48 266 48 346 48 c 0,34,35
 404 48 404 48 448.5 77 c 128,-1,36
 493 106 493 106 524 158 c 1,37,-1
 584 133 l 1,38,39
 541 60 541 60 477.5 23.5 c 128,-1,40
 414 -13 414 -13 342 -13 c 0,41,0
 229 -13 229 -13 173.5 58 c 128,-1,1
EndSplineSet
EndChar
StartChar: trademark
Encoding: 8482 8482 294
Width: 632
GlyphClass: 1
Flags: W
LayerCount: 2
Fore
SplineSet
180 625 m 1,0,-1
 91 625 l 1,1,-1
 100 668 l 1,2,-1
 329 668 l 1,3,-1
 319 625 l 1,4,-1
 230 625 l 1,5,-1
 169 343 l 1,6,-1
 120 343 l 1,7,-1
 180 625 l 1,0,-1
376 668 m 1,8,-1
 448 668 l 1,9,-1
 482 406 l 1,10,-1
 486 406 l 1,11,-1
 632 668 l 1,12,-1
 709 668 l 1,13,-1
 639 343 l 1,14,-1
 590 343 l 1,15,-1
 647 608 l 1,16,-1
 643 608 l 1,17,-1
 496 343 l 1,18,-1
 450 343 l 1,19,-1
 414 608 l 1,20,-1
 410 608 l 1,21,-1
 354 343 l 1,22,-1
 306 343 l 1,23,-1
 376 668 l 1,8,-1
EndSplineSet
EndChar
StartChar: partialdiff
Encoding: 8706 8706 331
Width: 632
GlyphClass: 1
Flags: W
LayerCount: 2
Fore
SplineSet
178 14.5 m 128,-1,1
 131 41 131 41 104.5 89 c 128,-1,2
 78 137 78 137 78 200 c 0,3,4
 78 276 78 276 111 343.5 c 128,-1,5
 144 411 144 411 203.5 452 c 128,-1,6
 263 493 263 493 339 493 c 0,7,8
 404 493 404 493 449.5 462.5 c 128,-1,9
 495 432 495 432 506 375 c 1,10,11
 509 448 509 448 475 503 c 128,-1,12
 441 558 441 558 379 587.5 c 128,-1,13
 317 617 317 617 239 619 c 1,14,-1
 252 680 l 1,15,16
 418 663 418 663 492 585 c 128,-1,17
 566 507 566 507 566 384 c 0,18,19
 566 294 566 294 538.5 203 c 128,-1,20
 511 112 511 112 448.5 50 c 128,-1,21
 386 -12 386 -12 286 -12 c 0,22,0
 225 -12 225 -12 178 14.5 c 128,-1,1
396.5 86 m 128,-1,24
 439 124 439 124 459 178 c 128,-1,25
 479 232 479 232 479 282 c 0,26,27
 479 349 479 349 442.5 390.5 c 128,-1,28
 406 432 406 432 339 432 c 0,29,30
 278 432 278 432 235 396 c 128,-1,31
 192 360 192 360 170.5 306.5 c 128,-1,32
 149 253 149 253 149 200 c 0,33,34
 149 132 149 132 186 90 c 128,-1,35
 223 48 223 48 289 48 c 0,36,23
 354 48 354 48 396.5 86 c 128,-1,24
EndSplineSet
EndChar
StartChar: summation
Encoding: 8721 8721 329
Width: 632
GlyphClass: 1
Flags: W
LayerCount: 2
Fore
SplineSet
11 -95 m 1,0,-1
 336 261 l 1,1,-1
 158 601 l 1,2,-1
 173 668 l 1,3,-1
 638 668 l 1,4,-1
 624 601 l 1,5,-1
 232 601 l 1,6,-1
 412 253 l 1,7,-1
 98 -95 l 1,8,-1
 477 -95 l 1,9,-1
 462 -162 l 1,10,-1
 -3 -162 l 1,11,-1
 11 -95 l 1,0,-1
EndSplineSet
EndChar
StartChar: radical
Encoding: 8730 8730 330
Width: 632
GlyphClass: 1
Flags: W
LayerCount: 2
Fore
SplineSet
136 161 m 1,0,-1
 43 161 l 1,1,-1
 57 225 l 1,2,-1
 194 225 l 1,3,-1
 254 -74 l 1,4,-1
 618 668 l 1,5,-1
 694 668 l 1,6,-1
 284 -162 l 1,7,-1
 202 -162 l 1,8,-1
 136 161 l 1,0,-1
EndSplineSet
EndChar
StartChar: infinity
Encoding: 8734 8734 326
Width: 632
GlyphClass: 1
Flags: W
LayerCount: 2
Fore
SplineSet
49 141 m 128,-1,1
 13 174 13 174 13 231 c 0,2,3
 13 275 13 275 32 315 c 128,-1,4
 51 355 51 355 87 379.5 c 128,-1,5
 123 404 123 404 170 404 c 0,6,7
 215 404 215 404 251 377.5 c 128,-1,8
 287 351 287 351 325 303 c 1,9,10
 363 341 363 341 384 359.5 c 128,-1,11
 405 378 405 378 433 391 c 128,-1,12
 461 404 461 404 494 404 c 0,13,14
 551 404 551 404 587 371 c 128,-1,15
 623 338 623 338 623 281 c 0,16,17
 623 237 623 237 604 197 c 128,-1,18
 585 157 585 157 549 132.5 c 128,-1,19
 513 108 513 108 466 108 c 0,20,21
 421 108 421 108 384 135 c 128,-1,22
 347 162 347 162 311 209 c 1,23,24
 274 172 274 172 252 153 c 128,-1,25
 230 134 230 134 202.5 121 c 128,-1,26
 175 108 175 108 142 108 c 0,27,0
 85 108 85 108 49 141 c 128,-1,1
205 184.5 m 128,-1,29
 234 203 234 203 285 256 c 1,30,31
 263 288 263 288 248.5 305 c 128,-1,32
 234 322 234 322 214 334 c 128,-1,33
 194 346 194 346 168 346 c 0,34,35
 128 346 128 346 100.5 314.5 c 128,-1,36
 73 283 73 283 73 244 c 0,37,38
 73 210 73 210 92 188 c 128,-1,39
 111 166 111 166 147 166 c 0,40,28
 176 166 176 166 205 184.5 c 128,-1,29
535.5 197.5 m 128,-1,42
 563 229 563 229 563 268 c 0,43,44
 563 302 563 302 544 324 c 128,-1,45
 525 346 525 346 489 346 c 0,46,47
 459 346 459 346 430.5 327.5 c 128,-1,48
 402 309 402 309 351 256 c 1,49,50
 373 224 373 224 387.5 207 c 128,-1,51
 402 190 402 190 422 178 c 128,-1,52
 442 166 442 166 468 166 c 0,53,41
 508 166 508 166 535.5 197.5 c 128,-1,42
EndSplineSet
EndChar
StartChar: greaterequal
Encoding: 8805 8805 319
Width: 632
GlyphClass: 1
Flags: W
LayerCount: 2
Fore
SplineSet
71 180 m 1,0,-1
 464 298 l 1,1,-1
 121 419 l 1,2,-1
 135 487 l 1,3,-1
 563 327 l 1,4,-1
 549 265 l 1,5,-1
 55 106 l 1,6,-1
 71 180 l 1,0,-1
46 64 m 1,7,-1
 507 64 l 1,8,-1
 494 0 l 1,9,-1
 33 0 l 1,10,-1
 46 64 l 1,7,-1
EndSplineSet
EndChar
StartChar: lozenge
Encoding: 9674 9674 334
Width: 632
GlyphClass: 1
Flags: W
LayerCount: 2
Fore
SplineSet
113 316 m 1,0,-1
 413 699 l 1,1,-1
 547 316 l 1,2,-1
 249 -67 l 1,3,-1
 113 316 l 1,0,-1
477 323 m 1,4,-1
 389 570 l 1,5,-1
 184 308 l 1,6,-1
 273 62 l 1,7,-1
 477 323 l 1,4,-1
EndSplineSet
EndChar
StartChar: gravecomb.case
Encoding: 65543 -1 341
Width: 0
GlyphClass: 4
Flags: W
AnchorPoint: "Anchor-5" 494 858 basemark 0
AnchorPoint: "Anchor-5" 453 668 mark 0
AnchorPoint: "Anchor-1" 453 668 mark 0
LayerCount: 2
Fore
SplineSet
364.5 795 m 128,-1,1
 357 804 357 804 357 814 c 0,2,3
 357 827 357 827 366 836 c 128,-1,4
 375 845 375 845 388 845 c 0,5,6
 396 845 396 845 404.5 839.5 c 128,-1,7
 413 834 413 834 425 820 c 2,8,-1
 493 738 l 1,9,-1
 440 738 l 1,10,-1
 390 773 l 2,11,0
 372 786 372 786 364.5 795 c 128,-1,1
EndSplineSet
EndChar
StartChar: uni0307.large
Encoding: 65542 -1 339
Width: 0
GlyphClass: 4
Flags: W
AnchorPoint: "Anchor-5" 414 705 basemark 0
AnchorPoint: "Anchor-5" 370 496 mark 0
AnchorPoint: "Anchor-1" 370 496 mark 0
LayerCount: 2
Fore
SplineSet
363.5 612 m 128,-1,1
 347 628 347 628 347 650 c 0,2,3
 347 673 347 673 363.5 689 c 128,-1,4
 380 705 380 705 402 705 c 256,5,6
 424 705 424 705 440 688.5 c 128,-1,7
 456 672 456 672 456 650 c 256,8,9
 456 628 456 628 440 612 c 128,-1,10
 424 596 424 596 402 596 c 256,11,0
 380 596 380 596 363.5 612 c 128,-1,1
EndSplineSet
EndChar
StartChar: uni030A.case
Encoding: 65550 -1 354
Width: 0
GlyphClass: 4
Flags: W
AnchorPoint: "Anchor-5" 441 839 basemark 0
AnchorPoint: "Anchor-5" 415 668 mark 0
AnchorPoint: "Anchor-1" 415 668 mark 0
LayerCount: 2
Fore
SplineSet
348.5 667.5 m 128,-1,1
 319 697 319 697 319 739 c 0,2,3
 319 780 319 780 348.5 809.5 c 128,-1,4
 378 839 378 839 420 839 c 256,5,6
 462 839 462 839 491 809.5 c 128,-1,7
 520 780 520 780 520 739 c 0,8,9
 520 697 520 697 491 667.5 c 128,-1,10
 462 638 462 638 420 638 c 256,11,0
 378 638 378 638 348.5 667.5 c 128,-1,1
458 700.5 m 128,-1,13
 474 716 474 716 474 738 c 0,14,15
 474 761 474 761 458.5 776.5 c 128,-1,16
 443 792 443 792 420 792 c 0,17,18
 398 792 398 792 382 776.5 c 128,-1,19
 366 761 366 761 366 738 c 0,20,21
 366 716 366 716 382 700.5 c 128,-1,22
 398 685 398 685 420 685 c 256,23,12
 442 685 442 685 458 700.5 c 128,-1,13
EndSplineSet
EndChar
StartChar: uni0328.case
Encoding: 65554 -1 363
Width: 0
GlyphClass: 4
Flags: W
AnchorPoint: "Anchor-2" 338 10 mark 0
LayerCount: 2
Fore
SplineSet
199.5 -151.5 m 128,-1,1
 171 -134 171 -134 171 -101 c 0,2,3
 171 -63 171 -63 200 -36.5 c 128,-1,4
 229 -10 229 -10 275 10 c 1,5,-1
 336 0 l 1,6,7
 297 -10 297 -10 264.5 -34 c 128,-1,8
 232 -58 232 -58 232 -89 c 0,9,10
 232 -123 232 -123 282 -123 c 0,11,12
 288 -123 288 -123 296 -121.5 c 128,-1,13
 304 -120 304 -120 310 -119 c 1,14,-1
 301 -164 l 1,15,16
 285 -169 285 -169 268 -169 c 0,17,0
 228 -169 228 -169 199.5 -151.5 c 128,-1,1
EndSplineSet
EndChar
